<?xml version="1.0" encoding="UTF-8" standalone="no"?>
<svg version="1.1" xmlns="http://www.w3.org/2000/svg"
  viewBox="0 0 479 415" width="100%" height="100%">
 <defs>
  <clipPath id="clipPath4208" clipPathUnits="userSpaceOnUse">
   <circle cy="132" cx="241" r="280"/>
  </clipPath>
 </defs>
 <circle cy="132" cx="241" r="280" fill="#00458c" class="hitRegion"/>
 <g clip-path="url(#clipPath4208)">
  <path d="m151 403 73.8-39.7 90.6-49 62.6-41.6 71.3-50.9 44.7-34.7 37.8-156-6.2-184-562-21.1-76.3 45.3 29.2 404 23.6 127z" fill="#5fb6e1" class="hitRegion"/>
  <path d="m43.4 351 57.1-21.1 104-42.8 110-52.1 90.6-44.7 60.8-163 56.4-192-631 1.86 4.96 510z" fill="#009a52" class="hitRegion"/>
  <path d="m-6.2 294 146-45.9s51.5-18 54.6-19.2c3.1-1.24 132-62.6 132-62.6l21.1-54 58.3-184 6.82-101-478-5.58 3.72 472z" fill="#96ba60" class="hitRegion"/>
  <path d="m-26.7 238 31-9.92 66.4-24.8 54-23 111-56.4 58.3-148 14.3-133-357 8.68-1.24 385z" fill="#f6dc44" class="hitRegion"/>
  <path d="m-13 162 40.3-11.8 24.8-13.6 107-49 41.6-102-30.4-142l-230 1.86 3.72 321z" fill="#e00025" class="hitRegion"/>
  <path d="m-45.3 78.8 47.1-4.34 76.3-36.6 36-61.4s-12.4-101-11.2-104c1.24-2.48-148 22.3-148 22.3z" fill="#984192" class="hitRegion"/>
 </g>
</svg>
