<svg xmlns="http://www.w3.org/2000/svg" id="svg" width="100%" height="100%" viewBox="0 0 300 200" preserveAspectRatio="none">
<g pointer-events="none">
<path d="m0,0h300v200h-300z"/>
<path d="m48.64,42.63-5.6-.43-3.54,4.36-1.31-5.46-5.25-2.01 4.79-2.94 .29-5.6 4.27,3.64 5.43-1.46-2.15,5.19z" fill="#f9ffdf"/>
<path d="m99.09,63.09-1.21-1.09-1.58.38 .66-1.49-.85-1.38 1.62.17 1.05-1.24 .34,1.59 1.5.62-1.4.82z" fill="#f9ffdf"/>
<path d="m140.45,58.44-3.95-.16-2.37,3.16-1.07-3.81-3.74-1.28 3.29-2.19 .07-3.96 3.1,2.46 3.78-1.16-1.38,3.7z" fill="#f9ffdf"/>
<path d="m242.05,32.86-2.28-3.59-4.25-.16 2.71-3.27-1.16-4.09 3.95,1.56 3.53-2.36-.27,4.24 3.35,2.62-4.12,1.06z" fill="#f9ffdf"/>
<path d="m218.64,55.82-2.7-1.37-2.65,1.45 .46-2.99-2.19-2.08 2.98-.48 1.3-2.72 1.38,2.69 3,.39-2.14,2.14z" fill="#f9ffdf"/>
<path d="m251.36,88.31-2.82-.12-1.7,2.26-.76-2.72-2.68-.92 2.36-1.56 .05-2.83 2.21,1.76 2.71-.83-.99,2.65z" fill="#f9ffdf"/>
<path d="m26.82,140.81-1.89.26-.86,1.71-.83-1.72-1.89-.29 1.38-1.32-.31-1.88 1.68.9 1.7-.88-.34,1.88z" fill="#f9ffdf"/>
<path d="m50.91,93.77-1.69-.01-.96,1.38-.52-1.6-1.61-.49 1.37-.99-.03-1.68 1.36,1 1.59-.56-.53,1.6z" fill="#f9ffdf"/>
<path d="m282.27,132.63 1.3-2.49-1.32-2.48 2.77.46 1.95-2.01 .42,2.77 2.52,1.23-2.51,1.26-.39,2.78-1.97-2z" fill="#f9ffdf"/>
<path d="m106.59,9.68-1.82-.96-1.81.96 .34-2.02-1.47-1.44 2.03-.29 .91-1.84 .91,1.84 2.03.29-1.47,1.43z" fill="#f9ffdf"/>
<path d="m131.36,121.95-1.75-.48-1.39,1.17-.08-1.82-1.54-.96 1.7-.64 .44-1.76 1.13,1.42 1.81-.13-1,1.52z" fill="#f9ffdf"/>
<g>
 <animateTransform attributeName="transform" type="rotate" from="0 151 387" to="-360 151 387" begin="svg.mouseover" end="svg.mouseout" dur="13s" restart="whenNotActive" repeatCount="indefinite"/>
 <path d="m402.17,387.5c0,4.75-.67,9.4-.93,14.08-.26,4.74 1.22,9.58.7,14.25-.53,4.72-1.37,9.39-2.16,14.03-.79,4.68-2.38,9.17-3.42,13.76-1.05,4.62-.21,9.76-1.51,14.28-1.31,4.55-3.66,8.84-5.21,13.28-1.56,4.47-6.17,7.72-7.97,12.07-1.81,4.37-2.44,9.16-4.49,13.41-2.06,4.26-4.1,8.47-6.38,12.59-2.29,4.14-2.11,9.78-4.62,13.77-2.52,4-6.6,7.04-9.34,10.89s-7.41,6.2-10.36,9.88c-2.95,3.69-3,9.85-6.14,13.37-3.15,3.52-7,6.51-10.34,9.85s-9,4.21-12.52,7.36-6.15,7.25-9.84,10.2c-3.69,2.94-7.18,6.13-11.04,8.87-3.85,2.73-7.67,5.51-11.67,8.03-3.99,2.51-7.77,5.45-11.91,7.74-4.12,2.28-8.45,4.29-12.71,6.35-4.24,2.05-8.43,4.35-12.8,6.17-4.35,1.8-8.34,4.88-12.8,6.44-4.44,1.55-10.39-1.55-14.94-.24-4.52,1.3-8.67,3.74-13.29,4.79-4.59,1.04-8.91,3.43-13.59,4.22-4.63.78-9.34,1.38-14.06,1.91-4.67.52-9.4.86-14.14,1.12-4.69.26-9.43-1.21-14.18-1.21s-9.57,2.81-14.25,2.55c-4.74-.26-9.49-1.12-14.16-1.64-4.72-.53-9.16-3-13.79-3.79-4.68-.79-9.93,1.18-14.52.14-4.62-1.05-9.3-2.35-13.82-3.65-4.55-1.31-8.03-6.07-12.47-7.62-4.47-1.56-9.81-.82-14.16-2.63-4.37-1.81-9.16-2.93-13.41-4.97-4.26-2.06-7.62-6.01-11.74-8.3-4.14-2.29-9.28-3.02-13.27-5.54-4-2.52-6.46-7.43-10.31-10.17s-7.02-6.31-10.7-9.25c-3.69-2.95-8.29-4.77-11.81-7.92s-8.56-4.81-11.9-8.14-5.36-8.05-8.51-11.57-5.38-7.83-8.33-11.52c-2.94-3.69-5.78-7.44-8.52-11.29-2.73-3.85-5.74-7.51-8.26-11.51-2.51-3.99-4.78-8.14-7.08-12.27-2.28-4.12-6.12-7.51-8.18-11.77-2.05-4.24-1.91-9.52-3.72-13.9-1.8-4.35-3.39-8.77-4.95-13.24-1.56-4.44-1.3-9.4-2.61-13.95-1.3-4.52-2.72-8.91-3.77-13.53-1.04-4.59-2.48-9.02-3.27-13.69-.78-4.63-3.08-9.04-3.61-13.76-.52-4.67-1.03-9.38-1.3-14.12-.26-4.69 1.11-9.42 1.11-14.18s1.36-9.34 1.62-14.03c.26-4.74-2.75-9.69-2.23-14.36 .53-4.72.13-9.63.91-14.26 .79-4.68 2.97-9.14 4.01-13.73 1.05-4.62.86-9.64 2.17-14.16 1.31-4.55 6.58-7.84 8.14-12.29 1.56-4.47-.42-10.29 1.38-14.64 1.81-4.37 3.88-8.75 5.92-13 2.06-4.26 4-8.71 6.28-12.84 2.29-4.14 8.88-5.72 11.4-9.71 2.52-4 4.9-7.93 7.64-11.77 2.74-3.85 4.63-8.21 7.58-11.9s6.51-6.75 9.66-10.27 3.2-10 6.53-13.34 10.11-3.06 13.63-6.21 6.27-7.05 9.97-10c3.69-2.95 6.31-7.29 10.16-10.03 3.85-2.73 6.9-6.82 10.9-9.34 3.99-2.51 8.2-4.94 12.34-7.23 4.12-2.28 9.85-1.59 14.11-3.65 4.24-2.05 7.33-6.81 11.7-8.62 4.35-1.8 9.92-.56 14.39-2.12 4.44-1.55 8.74-3.5 13.29-4.8 4.52-1.3 9.01-2.75 13.63-3.8 4.59-1.04 9.53-.05 14.21-.84 4.63-.78 9.1-2.33 13.81-2.85 4.67-.52 9.13-4.26 13.87-4.52 4.69-.26 9.53-.32 14.28-.32s9.53,1.15 14.22,1.41c4.74.26 9.45,1.19 14.12,1.71 4.72.53 9.57.36 14.2,1.14 4.68.79 9.1,2.99 13.68,4.04 4.62,1.05 9.86-.04 14.38,1.26 4.55,1.31 8.43,4.95 12.87,6.5 4.47,1.56 7.98,5.45 12.33,7.26 4.37,1.81 10.33.04 14.58,2.08 4.26,2.06 7.55,6.08 11.67,8.36 4.14,2.29 7.07,6.48 11.06,8.99 4,2.52 8.15,4.61 12,7.34 3.85,2.74 7.51,5.56 11.2,8.5 3.69,2.95 9.22,3.7 12.74,6.84 3.52,3.15 4.61,8.83 7.95,12.17s8.43,4.96 11.58,8.48 5.43,7.76 8.38,11.46c2.94,3.69 6.11,7.19 8.85,11.04 2.73,3.85 4.67,8.19 7.19,12.2 2.51,3.99 4.62,8.16 6.91,12.29 2.28,4.12 4.71,8.12 6.76,12.38 2.05,4.24 5.76,7.76 7.57,12.13 1.8,4.35.61,9.83 2.18,14.3 1.55,4.44 3.56,8.66 4.87,13.21 1.3,4.52 3.35,8.81 4.4,13.44 1.04,4.59.79,9.39 1.58,14.06 .78,4.63 2.06,9.14 2.59,13.86 .52,4.67 3.8,9.15 4.06,13.9 .26,4.68-2.25,9.5-2.25,14.25z" fill="#0fff06"/>
</g>
</g>
</svg>
