<svg xmlns="http://www.w3.org/2000/svg" viewBox="0 0 200 200"
 width="100%" height="100%">
 <path d="m99 157.2c-48.23 0-86.03-51.27-87.62-53.45l-2.7-3.72 2.7-3.722c1.59-2.27 39.39-53.54 87.62-53.54s86.03 51.27 87.62 53.45l2.702 3.722-2.702 3.722c-1.6 2.2-39.4 53.5-87.6 53.5zm-74.44-57.2c9.31 11.3 39.63 44.5 74.44 44.5 34.89 0 65.14-33.19 74.44-44.51-9.3-11.28-39.6-44.49-74.4-44.49-34.89 0-65.14 33.19-74.44 44.5z"
       fill="#999"/>
 <circle cy="100" cx="99" r="35.02" fill="#999"/>
 <line y2="37.08" x1="47.57" x2="151.9" stroke="#999" stroke-linecap="round"
       stroke-miterlimit="10" y1="161.8" stroke-width="25" fill="none"/>
</svg>
