<svg xmlns="http://www.w3.org/2000/svg" 
	 width="100%" height="100%" viewBox="0 0 200 200">
 <circle fill="#999999" cx="100" cy="100" r="100"/>
 <path fill="#FFFFFF" d="M149.958,142.319l27.723-46.62h-10.667c-1.718-36.233-31.653-65.069-68.325-65.069
	C60.936,30.608,30.319,61.225,30.319,99s30.617,68.37,68.37,68.37c15.324,0,29.419-5.001,40.823-13.511l-17.31-24.662
	c-6.489,5.055-14.651,8.071-23.514,8.071c-21.14,0-38.277-17.138-38.277-38.277S77.55,60.714,98.689,60.714
	c20.032,0,36.464,15.392,38.128,34.994h-11.91l25.051,46.62V142.319z">
   <animateTransform attributeName="transform" type="rotate"
     values="0 98.694 99.019; 360 98.694 99.019"
     repeatCount="indefinite" dur="1.2s"/>
  </path>
</svg>
