<svg xmlns="http://www.w3.org/2000/svg"
     width="100%" height="100%" viewBox="0 0 99.409 99.409">
 <circle r="46.7" cy="49.7" stroke="#3D3314" cx="49.7" stroke-miterlimit="10"
         stroke-width="6" fill="#fff"/>
 <g stroke-miterlimit="10" stroke="#3D3314" stroke-width="3"
    stroke-linecap="round" fill="none">
  <line y2="15.96" x1="49.77" x2="49.77" y1="8.955"/>
  <line y2="20.94" x1="28.52" x2="32.02" y1="14.88"/>
  <line y2="33.64" x1="13.95" x2="20.01" y1="30.14"/>
  <line y2="50.46" x1="9.273" x2="16.27" y1="50.46"/>
  <line y2="67.07" x1="15.06" x2="21.13" y1="70.57"/>
  <line y2="79.03" x1="30.14" x2="33.64" y1="85.1"/>
  <line y2="82.96" x1="49.77" x2="49.77" y1="89.96"/></g>
 <path d="m51.01 53.24l14.21 38.34c18.87-6.976 31.26-26.14 28.84-47.01-0.215-1.861-0.555-3.675-0.986-5.45l-39.88 9.735c-2.49 0.4-3.14 1.99-2.18 4.38z"
       fill="#3D3314"/>
 <g stroke-width="3" stroke-miterlimit="10" stroke-linecap="round" fill="none">
  <g stroke="#fff">
   <line y2="77.97" x1="70.76" x2="67.26" y1="84.03"/>
   <line y2="65.4" x1="85.1" x2="79.03" y1="68.9"/>
   <line y2="48.46" x1="90.27" x2="83.27" y1="48.46"/></g>
  <line y2="31.84" x1="84.21" x2="78.15" stroke="#3D3314" y1="28.34"/>
  <line y2="20.01" x1="68.91" x2="65.41" stroke="#3D3314" y1="13.95"/></g></svg>
