<svg xmlns="http://www.w3.org/2000/svg"
     width="100%" height="100%" viewBox="0 0 156.59 184.12">
 <circle r="46.7" cy="49.7" stroke="#3D3314" cx="78.45" stroke-miterlimit="10"
         stroke-width="6" fill="#fff"/>
 <g stroke-miterlimit="10" stroke="#3D3314" stroke-width="3"
    stroke-linecap="round" fill="none">
  <line y2="15.96" x1="78.52" x2="78.52" y1="8.955"/>
  <line y2="20.94" x1="57.27" x2="60.77" y1="14.88"/>
  <line y2="33.64" x1="42.69" x2="48.76" y1="30.14"/>
  <line y2="50.46" x1="38.02" x2="45.02" y1="50.46"/>
  <line y2="67.07" x1="43.81" x2="49.87" y1="70.57"/>
  <line y2="79.03" x1="58.88" x2="62.38" y1="85.1"/>
  <line y2="82.96" x1="78.52" x2="78.52" y1="89.96"/></g>
 <path d="m79.76 53.24l14.21 38.34c18.87-6.976 31.26-26.14 28.84-47.01-0.215-1.861-0.555-3.675-0.986-5.45l-39.88 9.735c-2.47 0.4-3.13 1.99-2.16 4.38z"
       fill="#3D3314"/>
 <g stroke-width="3" stroke-miterlimit="10" stroke-linecap="round" fill="none">
  <g stroke="#fff">
   <line y2="77.97" x1="99.5" x2="96" y1="84.03"/>
   <line y2="65.4" x1="113.8" x2="107.8" y1="68.9"/>
   <line y2="48.46" x1="119" x2="112" y1="48.46"/></g>
  <line y2="31.84" x1="113" x2="106.9" stroke="#3D3314" y1="28.34"/>
  <line y2="20.01" x1="97.65" x2="94.15" stroke="#3D3314" y1="13.95"/></g>
 <g fill="#3D3314">
  <circle cy="113.5" cx="19.9" r="13.79"/>
  <path d="m37.2 140c-1.472-3.275-6.182-8.009-8.332-9.764-0.75-0.985-1.564-1.857-2.433-2.593-1.989 0.92-4.197 1.448-6.533 1.448-2.53 0-4.911-0.616-7.024-1.685-0.901 0.72-1.746 1.584-2.525 2.568-0.002 0.002-0.004 0.002-0.006 0.003-1.963 1.504-7.106 6.574-8.655 10.02-2.478 5.515-2.2 11.02 0.622 12.28 0.898 0.403 1.945 0.327 3.034-0.138 1.417 10.1 7.211 17.66 14.15 17.66 6.932 0 12.72-7.545 14.15-17.62 1.052 0.426 2.062 0.485 2.931 0.095 2.82-1.3 3.1-6.8 0.62-12.3z"/></g>
 <g fill="#3D3314">
  <circle cy="127.8" cx="77.1" r="13.79"/>
  <path d="m94.4 154.3c-1.472-3.275-6.182-8.009-8.332-9.764-0.75-0.985-1.564-1.857-2.433-2.593-1.989 0.92-4.197 1.448-6.533 1.448-2.53 0-4.911-0.616-7.024-1.685-0.901 0.72-1.746 1.584-2.525 2.568-0.002 0.002-0.004 0.002-0.006 0.003-1.963 1.503-7.106 6.574-8.655 10.02-2.478 5.515-2.2 11.02 0.622 12.28 0.898 0.403 1.945 0.326 3.034-0.138 1.417 10.1 7.211 17.66 14.15 17.66 6.932 0 12.72-7.545 14.15-17.62 1.052 0.426 2.062 0.485 2.931 0.095 2.82-1.3 3.1-6.8 0.62-12.3z"/></g>
 <g fill="#3D3314">
  <circle cy="112.4" cx="137.6" r="13.79"/>
  <path d="m154.9 138.9c-1.472-3.275-6.182-8.009-8.332-9.764-0.75-0.985-1.564-1.857-2.433-2.593-1.989 0.92-4.197 1.448-6.533 1.448-2.53 0-4.911-0.616-7.024-1.685-0.901 0.72-1.746 1.584-2.525 2.568-0.002 0.002-0.004 0.002-0.006 0.003-1.963 1.504-7.106 6.574-8.655 10.02-2.478 5.515-2.2 11.02 0.622 12.28 0.898 0.403 1.945 0.326 3.034-0.138 1.417 10.1 7.211 17.66 14.15 17.66 6.932 0 12.72-7.545 14.15-17.62 1.052 0.426 2.062 0.485 2.931 0.095 2.8-1.3 3.1-6.8 0.6-12.3z"/></g></svg>
