<svg xmlns="http://www.w3.org/2000/svg"
  width="100%" height="100%" viewBox="0 0 156.59 166.939">
<g fill="#3D3314">
	<circle cy="96.33" cx="19.9" r="13.79"/>
	<path d="m37.2 122.8c-1.472-3.275-6.182-8.009-8.332-9.764-0.75-0.985-1.564-1.857-2.433-2.593-1.989 0.92-4.197 1.448-6.533 1.448-2.53 0-4.911-0.616-7.024-1.685-0.901 0.72-1.746 1.584-2.525 2.568-0.002 0.002-0.004 0.002-0.006 0.003-1.963 1.504-7.106 6.574-8.655 10.02-2.478 5.515-2.2 11.02 0.622 12.28 0.898 0.403 1.945 0.327 3.034-0.138 1.417 10.1 7.211 17.66 14.15 17.66 6.932 0 12.72-7.545 14.15-17.62 1.052 0.426 2.062 0.485 2.931 0.095 2.82-1.3 3.1-6.8 0.62-12.3z"/>
</g>
<g fill="#3D3314">
	<circle cy="110.6" cx="77.1" r="13.79"/>
	<path d="m94.4 137.1c-1.472-3.275-6.182-8.009-8.332-9.764-0.75-0.985-1.564-1.857-2.433-2.593-1.989 0.92-4.197 1.448-6.533 1.448-2.53 0-4.911-0.616-7.024-1.685-0.901 0.72-1.746 1.584-2.525 2.568-0.002 0.002-0.004 0.002-0.006 0.003-1.963 1.503-7.106 6.574-8.655 10.02-2.478 5.515-2.2 11.02 0.622 12.28 0.898 0.403 1.945 0.326 3.034-0.138 1.417 10.1 7.211 17.66 14.15 17.66 6.932 0 12.72-7.545 14.15-17.62 1.052 0.426 2.062 0.485 2.931 0.095 2.82-1.3 3.1-6.8 0.62-12.3z"/>
</g>
<g fill="#3D3314">
	<circle cy="95.23" cx="137.6" r="13.79"/>
	<path d="m154.9 121.7c-1.472-3.275-6.182-8.009-8.332-9.764-0.75-0.985-1.564-1.857-2.433-2.593-1.989 0.92-4.197 1.448-6.533 1.448-2.53 0-4.911-0.616-7.024-1.685-0.901 0.72-1.746 1.584-2.525 2.568-0.002 0.002-0.004 0.002-0.006 0.003-1.963 1.504-7.106 6.574-8.655 10.02-2.478 5.515-2.2 11.02 0.622 12.28 0.898 0.403 1.945 0.326 3.034-0.138 1.417 10.1 7.211 17.66 14.15 17.66 6.932 0 12.72-7.545 14.15-17.62 1.052 0.426 2.062 0.485 2.931 0.095 2.8-1.3 3.1-6.8 0.6-12.3z"/>
</g>
<g>
	<polygon points="38.59 17.22 38.48 72.54 128.8 59.85 128.9 4.533"
           fill="#3D3314" stroke="#3d3314" stroke-width="0.2"/>
	<polygon points="30.25 12.69 30.15 68.01 38.48 72.54 38.59 17.22"
           fill="#1F1A0A" stroke="#1f1a0a" stroke-width="0.2"/>
	<polygon points="30.25 12.69 38.59 17.22 128.9 4.533 120.6 0" fill="#2B240E"
           stroke="#2b240e" stroke-width="0.2"/>
  <polygon points="70.3 25.06 70.27 39.99 70.27 40.86 69.45 40.98 69.45 40.1 69.48 25.18" fill="#fff"/>
  <polygon points="56.44 42.81 56.41 57.74 55.6 57.85 55.62 42.92" fill="#fff"/>
  <polygon points="38.51 61.13 30.17 56.6 30.17 55.72 38.51 60.25" fill="#fff"/>
  <polygon points="38.54 45.32 30.2 40.79 30.2 39.91 38.54 44.45" fill="#fff"/>
  <polygon points="111.8 6.935 111.8 18.35 111 18.47 111 7.049" fill="#fff"/>
  <polygon points="111 7.049 102.7 2.516 103.5 2.402 111.8 6.935" fill="#fff"/>
  <polygon points="84.14 10.82 84.12 22.24 83.31 22.36 83.33 10.94" fill="#fff"/>
  <polygon points="83.33 10.94 75 6.403 75.81 6.289 84.14 10.82" fill="#fff"/>
  <polygon points="55.68 14.82 47.34 10.29 48.16 10.18 56.49 14.71" fill="#fff"/>
  <polygon points="56.49 14.71 56.47 26.13 55.65 26.24 55.68 14.82" fill="#fff"/>
  <polygon points="128.9 15.95 128.9 16.83 97.95 21.17 97.14 21.29 70.3 25.06 69.48 25.18 38.56 29.52 38.57 28.64" fill="#fff"/>
  <polygon points="38.56 29.52 30.23 24.99 30.23 24.11 38.57 28.64" fill="#fff"/>
  <polygon points="111.7 35.04 111.7 49.96 110.9 50.08 110.9 35.15" fill="#fff"/>
  <polygon points="97.89 52.78 97.87 64.19 97.06 64.31 97.08 52.9" fill="#fff"/>
  <polygon points="97.95 21.17 97.92 36.1 97.92 36.98 97.11 37.09 97.11 36.22 97.14 21.29" fill="#fff"/>
  <polygon points="128.8 31.76 128.8 32.63 111.7 35.04 110.9 35.15 84.09 38.92 83.28 39.04 56.44 42.81 55.62 42.92 38.54 45.32 38.54 44.45 69.45 40.1 69.45 40.98 70.27 40.86 70.27 39.99 97.11 36.22 97.11 37.09 97.92 36.98 97.92 36.1" fill="#fff"/>
  <polygon points="84.09 38.92 84.06 53.85 83.25 53.96 83.28 39.04" fill="#fff"/>
  <polygon points="70.24 56.67 70.22 68.08 69.4 68.2 69.42 56.78" fill="#fff"/>
  <polygon points="128.8 47.56 128.8 48.44 97.89 52.78 97.08 52.9 70.24 56.67 69.42 56.78 38.51 61.13 38.51 60.25" fill="#fff"/>
</g>
</svg>
