<svg xmlns="http://www.w3.org/2000/svg"
  width="100%" height="100%" viewBox="0 0 98.737 72.539" >
 <polygon points="8.436 17.22 8.333 72.54 98.64 59.85 98.74 4.533"
          fill="#3D3314" stroke="#3d3314" stroke-width="0.2"/>
 <polygon points="0.103 12.69 0 68.01 8.333 72.54 8.436 17.22" fill="#1F1A0A"
          stroke="#1f1a0a" stroke-width="0.2"/>
 <polygon points="0.103 12.69 8.436 17.22 98.74 4.533 90.4 0" fill="#2B240E"
          stroke="#2b240e" stroke-width="0.2"/>
 <polygon points="40.14 25.06 40.12 39.99 40.11 40.86 39.29 40.98 39.3 40.1 39.32 25.18"
          fill="#fff"/>
 <polygon points="26.28 42.81 26.26 57.74 25.44 57.85 25.47 42.92" fill="#fff"/>
 <polygon points="8.354 61.13 0.021 56.6 0.023 55.72 8.356 60.25" fill="#fff"/>
 <polygon points="8.384 45.32 0.051 40.79 0.052 39.91 8.385 44.45" fill="#fff"/>
 <polygon points="81.65 6.935 81.63 18.35 80.82 18.47 80.84 7.049" fill="#fff"/>
 <polygon points="80.84 7.049 72.5 2.516 73.32 2.402 81.65 6.935" fill="#fff"/>
 <polygon points="53.99 10.82 53.97 22.24 53.16 22.36 53.18 10.94" fill="#fff"/>
 <polygon points="53.18 10.94 44.84 6.403 45.66 6.289 53.99 10.82" fill="#fff"/>
 <polygon points="25.52 14.82 17.19 10.29 18 10.18 26.34 14.71" fill="#fff"/>
 <polygon points="26.34 14.71 26.32 26.13 25.5 26.24 25.52 14.82" fill="#fff"/>
 <polygon points="98.72 15.95 98.72 16.83 67.8 21.17 66.98 21.29 40.14 25.06 39.32 25.18 8.413 29.52 8.415 28.64"
          fill="#fff"/>
 <polygon points="8.413 29.52 0.08 24.99 0.082 24.11 8.415 28.64" fill="#fff"/>
 <polygon points="81.6 35.04 81.57 49.96 80.76 50.08 80.78 35.15" fill="#fff"/>
 <polygon points="67.74 52.78 67.72 64.19 66.9 64.31 66.92 52.9" fill="#fff"/>
 <polygon points="67.8 21.17 67.77 36.1 67.77 36.98 66.95 37.09 66.96 36.22 66.98 21.29"
          fill="#fff"/>
 <polygon points="98.69 31.76 98.68 32.63 81.6 35.04 80.78 35.15 53.94 38.92 53.12 39.04 26.28 42.81 25.47 42.92 8.384 45.32 8.385 44.45 39.3 40.1 39.29 40.98 40.11 40.86 40.12 39.99 66.96 36.22 66.95 37.09 67.77 36.98 67.77 36.1"
          fill="#fff"/>
 <polygon points="53.94 38.92 53.91 53.85 53.1 53.96 53.12 39.04" fill="#fff"/>
 <polygon points="40.08 56.67 40.06 68.08 39.24 68.2 39.26 56.78" fill="#fff"/>
 <polygon points="98.66 47.56 98.66 48.44 67.74 52.78 66.92 52.9 40.08 56.67 39.26 56.78 8.354 61.13 8.356 60.25"
          fill="#fff"/>
</svg>
