<?xml version="1.0" encoding="UTF-8" standalone="no"?>
<svg xmlns="http://www.w3.org/2000/svg" version="1.1"
 viewBox="0 0 109 74" width="100%" height="100%">
<g stroke-width="7.0686" stroke-miterlimit="10" transform="translate(-248.51 -389.6)">
 <path d="m344.41 430.48c0.016-0.195-21.688 1.32-21.688 1.32l-46.967 28.357h45.428c12.075-8.144 22.048-18.351 23.227-29.677z" stroke="#d9b000" fill="#d9b000"/>
 <polygon stroke="#c03737" points="274.83 460.16 322.35 431.24 329.6 408.37 309.29 413.51 264.51 460.16" fill="#c03737"/>
 <path d="m312.96 393.82s-20.051 2.375-23.512 5.652c-3.469 3.271-22.383 21.119-32.127 40.059-1.945 3.777-3.668 7.15-5.27 10.312v10.312h11.656l45.205-47.32 4.048-19.015z" stroke="#008a5c" fill="#008a5c"/>
</g>
<g stroke-linejoin="round" transform="translate(-248.51 -389.6)" stroke="#1d2b68" stroke-miterlimit="10" stroke-width="8" fill="#1d2b68">
 <path d="m288.7 435.98c0 3.109-0.809 5.617-2.42 7.523-1.732 2.025-4.107 3.037-7.129 3.037-1.73 0-3.227-0.367-4.488-1.1-1.145 1.291-2.127 1.936-2.947 1.936-0.676 0-1.24-0.199-1.695-0.594-0.455-0.396-0.682-0.918-0.682-1.562 0-0.996 0.572-2.111 1.717-3.344v-22.09c0-0.732 0.234-1.334 0.703-1.805 0.469-0.469 1.07-0.703 1.805-0.703 0.732 0 1.342 0.234 1.826 0.703 0.484 0.471 0.727 1.072 0.727 1.805v8.447c1.994-1.555 4.031-2.332 6.115-2.332 4.312 0.001 6.468 3.361 6.468 10.077zm-5.06 0c0-1.145-0.191-2.141-0.572-2.992-0.5-1.145-1.248-1.715-2.244-1.715-1.35 0-2.684 0.982-4.004 2.947-0.234 0.352-0.469 0.66-0.703 0.924v6.027c1.025 0.176 1.906 0.266 2.639 0.266 3.255 0 4.884-1.82 4.884-5.457z"/>
 <path d="m312.37 445.31c0 0.703-0.262 1.32-0.789 1.848-0.527 0.529-1.145 0.793-1.848 0.793-0.793 0-1.426-0.338-1.895-1.012-0.262-0.412-0.703-1.041-1.32-1.893-1.613 1.76-3.578 2.641-5.895 2.641-2.348 0-4.285-0.83-5.809-2.486-1.523-1.658-2.289-3.674-2.289-6.051 0-3.344 1.219-6.402 3.652-9.174 2.438-2.771 5.309-4.158 8.625-4.158 0.879 0 1.586 0.104 2.113 0.309 1.73 0 2.578 0.852 2.551 2.551-0.117 7.07 0 11 0.352 11.793 0.5 1.174 1.16 2.273 1.98 3.301 0.385 0.467 0.572 0.981 0.572 1.538zm-7.785-5.633c-0.031-0.381-0.074-2.111-0.133-5.191-0.031-2.023-0.043-3.227-0.043-3.607-1.762 0.176-3.352 1.15-4.773 2.926-1.426 1.775-2.137 3.557-2.137 5.346 0 2.143 1.16 3.213 3.477 3.213 0.441 0 0.926-0.045 1.453-0.133 0.176-0.176 0.613-0.762 1.32-1.76 0.262-0.353 0.543-0.617 0.836-0.794z"/>
 <path d="m331.16 430.62c0 0.703-0.262 1.312-0.789 1.826-0.531 0.512-1.145 0.77-1.852 0.77-0.73 0-1.363-0.322-1.891-0.969-0.734-0.908-1.496-1.363-2.289-1.363-1.32 0-2.402 1.012-3.254 3.035-0.676 1.613-1.012 3.184-1.012 4.709 0 2.199 0.629 3.535 1.891 4.004 0.469 0.176 0.91 0.264 1.32 0.264 0.879 0 1.641-0.426 2.289-1.275 0.527-0.705 1.172-1.057 1.934-1.057 0.676 0 1.285 0.258 1.828 0.77 0.543 0.514 0.812 1.107 0.812 1.783 0 0.527-0.191 1.041-0.57 1.539-1.762 2.258-3.812 3.389-6.16 3.389-2.496 0-4.578-1.057-6.25-3.168-1.555-1.994-2.332-4.27-2.332-6.82 0-2.492 0.734-4.973 2.203-7.436 1.875-3.168 4.223-4.752 7.039-4.752 1.32 0 2.77 0.455 4.355 1.363 1.818 1.027 2.728 2.156 2.728 3.388z"/>
 <path d="m352.9 443.95c0 0.674-0.262 1.283-0.789 1.826s-1.129 0.812-1.805 0.812c-0.617 0-1.188-0.234-1.715-0.703l-8.141-7.436v7.039c0 0.734-0.242 1.342-0.727 1.826s-1.094 0.727-1.828 0.727c-0.73 0-1.332-0.242-1.801-0.727-0.473-0.484-0.707-1.092-0.707-1.826v-25.52c0-0.732 0.234-1.334 0.707-1.805 0.469-0.469 1.07-0.703 1.801-0.703 0.734 0 1.344 0.234 1.828 0.703 0.484 0.471 0.727 1.072 0.727 1.805v11.66l0.133 0.131c1.406-0.967 3.461-2.992 6.156-6.07 0.531-0.588 1.145-0.881 1.852-0.881 0.703 0 1.316 0.258 1.848 0.77 0.527 0.514 0.789 1.107 0.789 1.783 0 0.586-0.234 1.143-0.703 1.672-2.582 2.963-4.621 5.031-6.117 6.203l7.613 6.863c0.586 0.531 0.879 1.146 0.879 1.851z"/>
</g>
<g transform="translate(-248.51 -389.6)" fill="#fff">
 <path d="m288.7 435.98c0 3.109-0.809 5.617-2.42 7.523-1.732 2.025-4.107 3.037-7.129 3.037-1.73 0-3.227-0.367-4.488-1.1-1.145 1.291-2.127 1.936-2.947 1.936-0.676 0-1.24-0.199-1.695-0.594-0.455-0.396-0.682-0.918-0.682-1.562 0-0.996 0.572-2.111 1.717-3.344v-22.09c0-0.732 0.234-1.334 0.703-1.805 0.469-0.469 1.07-0.703 1.805-0.703 0.732 0 1.342 0.234 1.826 0.703 0.484 0.471 0.727 1.072 0.727 1.805v8.447c1.994-1.555 4.031-2.332 6.115-2.332 4.312 0.001 6.468 3.361 6.468 10.077zm-5.06 0c0-1.145-0.191-2.141-0.572-2.992-0.5-1.145-1.248-1.715-2.244-1.715-1.35 0-2.684 0.982-4.004 2.947-0.234 0.352-0.469 0.66-0.703 0.924v6.027c1.025 0.176 1.906 0.266 2.639 0.266 3.255 0 4.884-1.82 4.884-5.457z"/>
 <path d="m312.37 445.31c0 0.703-0.262 1.32-0.789 1.848-0.527 0.529-1.145 0.793-1.848 0.793-0.793 0-1.426-0.338-1.895-1.012-0.262-0.412-0.703-1.041-1.32-1.893-1.613 1.76-3.578 2.641-5.895 2.641-2.348 0-4.285-0.83-5.809-2.486-1.523-1.658-2.289-3.674-2.289-6.051 0-3.344 1.219-6.402 3.652-9.174 2.438-2.771 5.309-4.158 8.625-4.158 0.879 0 1.586 0.104 2.113 0.309 1.73 0 2.578 0.852 2.551 2.551-0.117 7.07 0 11 0.352 11.793 0.5 1.174 1.16 2.273 1.98 3.301 0.385 0.467 0.572 0.981 0.572 1.538zm-7.785-5.633c-0.031-0.381-0.074-2.111-0.133-5.191-0.031-2.023-0.043-3.227-0.043-3.607-1.762 0.176-3.352 1.15-4.773 2.926-1.426 1.775-2.137 3.557-2.137 5.346 0 2.143 1.16 3.213 3.477 3.213 0.441 0 0.926-0.045 1.453-0.133 0.176-0.176 0.613-0.762 1.32-1.76 0.262-0.353 0.543-0.617 0.836-0.794z"/>
 <path d="m331.16 430.62c0 0.703-0.262 1.312-0.789 1.826-0.531 0.512-1.145 0.77-1.852 0.77-0.73 0-1.363-0.322-1.891-0.969-0.734-0.908-1.496-1.363-2.289-1.363-1.32 0-2.402 1.012-3.254 3.035-0.676 1.613-1.012 3.184-1.012 4.709 0 2.199 0.629 3.535 1.891 4.004 0.469 0.176 0.91 0.264 1.32 0.264 0.879 0 1.641-0.426 2.289-1.275 0.527-0.705 1.172-1.057 1.934-1.057 0.676 0 1.285 0.258 1.828 0.77 0.543 0.514 0.812 1.107 0.812 1.783 0 0.527-0.191 1.041-0.57 1.539-1.762 2.258-3.812 3.389-6.16 3.389-2.496 0-4.578-1.057-6.25-3.168-1.555-1.994-2.332-4.27-2.332-6.82 0-2.492 0.734-4.973 2.203-7.436 1.875-3.168 4.223-4.752 7.039-4.752 1.32 0 2.77 0.455 4.355 1.363 1.818 1.027 2.728 2.156 2.728 3.388z"/>
 <path d="m352.9 443.95c0 0.674-0.262 1.283-0.789 1.826s-1.129 0.812-1.805 0.812c-0.617 0-1.188-0.234-1.715-0.703l-8.141-7.436v7.039c0 0.734-0.242 1.342-0.727 1.826s-1.094 0.727-1.828 0.727c-0.73 0-1.332-0.242-1.801-0.727-0.473-0.484-0.707-1.092-0.707-1.826v-25.52c0-0.732 0.234-1.334 0.707-1.805 0.469-0.469 1.07-0.703 1.801-0.703 0.734 0 1.344 0.234 1.828 0.703 0.484 0.471 0.727 1.072 0.727 1.805v11.66l0.133 0.131c1.406-0.967 3.461-2.992 6.156-6.07 0.531-0.588 1.145-0.881 1.852-0.881 0.703 0 1.316 0.258 1.848 0.77 0.527 0.514 0.789 1.107 0.789 1.783 0 0.586-0.234 1.143-0.703 1.672-2.582 2.963-4.621 5.031-6.117 6.203l7.613 6.863c0.586 0.531 0.879 1.146 0.879 1.851z"/>
</g>
<rect width="100%" height="100%" fill="none" pointer-events="all"/>
</svg>
