<?xml version="1.0" encoding="UTF-8" standalone="no"?>
<svg xmlns="http://www.w3.org/2000/svg" version="1.1"
  width="300" height="300" viewBox="0 0 300 300">
 <defs>
  <linearGradient id="a" x2="0" y2="1">
   <stop offset="0"/>
   <stop stop-color="#2a0020" offset=".65"/>
   <stop stop-color="#000041" offset="1"/>
  </linearGradient>
 </defs>
 <rect width="300" fill="url(#a)" height="300"/>
 <g fill="white" opacity="0.2">
   <path d="m48.3 67.7-2.7 3.57-3.65 2.26 2.61 1.74 0.348 2.26 3.48-0.957 3.22 0.87 0.522-2.7 1.91-1.13-3.39-2.35s-1.74-3.83-2.35-3.57z"/>
   <path d="m172 9.93-2.62 3.41-3.61 2.17 2.52 2.03 0.395 2.12s3.36-0.692 3.71-0.642c0.346 0.0494 3.16 0.692 3.16 0.692l0.445-2.72 1.83-1.24-3.51-2.22z"/>
   <path d="m-0.791 23.5-1.78 2.6-3.36 0.8 2.77 2 0.2 3.5 2.96-1 1.53 0.3 0.5-2.4 1.97-1.5-3.6-2.2z"/>
   <path d="m-0.939 69.4-1.83 2.17-3.41 0.84 3.21 1.63-0.642 4.05 3.56-1.09 1.73 0.543 0.445-2.62 1.88-1.43-3.61-2.22z"/>
   <path d="m46.4 211-2.72 3.46-3.56 2.17 2.67 1.93 0.346 2.22 3.75-0.642 3.11 0.593 0.395-2.52 1.93-1.38-3.46-2.22z"/>
   <path d="m65.8 259-2.66 3.7-3.7 2.31 2.52 1.82 0.419 2.17 3.84-0.559 3.14 0.769 0.349-2.79 1.82-1.33-3.28-2.1z"/>
   <path d="m163 252-2.79 3.7-3.77 2.03 2.73 2.1 0.489 2.17 3.84-0.699 2.79 0.699 0.349-2.93 2.03-1.19-3.35-2.03z"/>
   <path d="m284 280-2.52 3.49-3.84 2.31 2.86 1.82 0.349 2.31 3.56-0.978 3.21 0.908 0.559-2.86 1.75-1.19-3.63-2.52z"/>
   <path d="m241 134-2.86 3.63-3.35 2.17 2.38 1.96 0.279 1.96 4.05-0.629 2.73 0.559 0.559-2.59 1.75-1.12-3.35-2.17z"/>
   <path d="m210 94.6-2.79 3.56-3.35 1.96 2.66 2.38 0.279 2.17 3.77-1.12 2.93 0.978 0.629-2.73 1.82-1.26-3.56-2.38z"/>
   <path d="m292 23.7-2.66 3.42-3.84 2.45 2.73 1.54 0.419 2.38 3.91-0.908 2.93 0.978 0.559-2.73 1.54-1.19-3.28-2.38z"/>
   <path d="m168 143-2.77 3.36-3.75 2.37 2.67 1.78 0.296 2.37 3.56-0.889 3.85 0.791-0.198-2.47 1.88-1.19-3.66-2.37z"/>
 </g>
</svg>
