<?xml version="1.0" standalone="no"?>
<!DOCTYPE svg PUBLIC "-//W3C//DTD SVG 1.1//EN" 
  "http://www.w3.org/Graphics/SVG/1.1/DTD/svg11.dtd">
<svg viewBox="0 0 1280 800"
     xmlns="http://www.w3.org/2000/svg" version="1.1"
     xmlns:xlink="http://www.w3.org/1999/xlink"
     onload="Main.init();"
>

	<script xlink:href="js/jquery-1.7.1.min.js"></script>
	<script xlink:href="js/main.js"></script>
	<script>
		var TYPE = 1;
	</script>

	<image xlink:href="images/stars.jpg" x="-100%" y="-100%" width="300%" height="300%">
        <animateTransform attributeName="transform" type="rotate"
            from="0 640 400" to="360 640 400" repeatCount="indefinite" dur="600s" />
	</image>
<!--
	<g id="main-group" transform="translate(100 100) scale(0.25)" >
-->
	<g id="main-group" transform="translate(-640 540)" >
	        <animateTransform id="planet-rotation" attributeName="transform" type="rotate"
	            from="0 1280 1280" to="360 1280 1280" repeatCount="indefinite" additive="sum" dur="120s"
	        />

			<path id="path1" fill="#3BBF00" d="M2107.176,303.226c51.287-38.17,107.085-80.151,139.962-106.279
	c72.749-57.816,140.792,0.553,172.936,124.504c46.971,181.126,88.239-61.71,25.724-172.804s-218.044,36.705-218.044,36.705
	l-128.972,110.847C1876.932,111.566,1591.691,0.5,1280.5,0.5c-350.849,0-668.712,141.174-899.928,369.795l-11.228-64.528
	l109.03-106.794l-151.085-21.58L259.415,40.699L192.204,177.72L41.225,200.031L150.77,306.296l-25.436,150.483l134.915-71.346
	l70.564,36.88c-34.609,38.276-66.927,78.661-96.76,120.926L191.5,523.214l14.268,61.827c-6.643,10.245-13.149,20.587-19.504,31.031
	h-23.334v39.94c-5.827,10.404-11.498,20.907-17.04,31.488h-25.818v52.156c-1.096,2.347-2.198,4.69-3.28,7.044l-43.148-19.915
	l20.365,72.588C33.714,947.907,0.5,1110.323,0.5,1280.5c0,275.9,87.294,531.41,235.765,740.424L66.847,2190.342l308.097,308.097
	l170.168-170.168C753.189,2474.581,1006.806,2560.5,1280.5,2560.5c353.423,0,568.659-97.982,800.287-329.572
	c11.963-11.961-102.867-290.802-91.384-303.226c18.903-20.452,291.688,124.88,309.24,103.226
	c178.289-219.96,261.856-445.226,261.856-750.428C2560.5,888.701,2384.465,538.021,2107.176,303.226z"/>

	<!--
	<image xlink:href="smiley.svg" width="100" height="100"
  transform="translate(-80 -80)">
		<animateMotion dur="50s" repeatCount="indefinite" rotate="auto-reverse" >
			<mpath xlink:href="#path1"/>
		</animateMotion>
	</image>

	<image xlink:href="smiley.svg" width="100" height="100"
  transform="translate(-40 -80)">
		<animateMotion dur="52s" repeatCount="indefinite" rotate="auto-reverse" >
			<mpath xlink:href="#path1"/>
		</animateMotion>
	</image>

	<image xlink:href="smiley.svg" width="100" height="100"
  transform="translate(-40 -80)">
		<animateMotion dur="54s" repeatCount="indefinite" rotate="auto-reverse" >
			<mpath xlink:href="#path1"/>
		</animateMotion>
	</image>

	<image xlink:href="smiley.svg" width="100" height="100"
  transform="translate(-40 -80)">
		<animateMotion dur="56s" repeatCount="indefinite" rotate="auto-reverse" >
			<mpath xlink:href="#path1"/>
		</animateMotion>
	</image>

	<image xlink:href="smiley.svg" width="100" height="100"
  transform="translate(-40 -80)">
		<animateMotion dur="58s" repeatCount="indefinite" rotate="auto-reverse" >
			<mpath xlink:href="#path1"/>
		</animateMotion>
	</image>

	<image xlink:href="smiley.svg" width="100" height="100"
  transform="translate(-40 -80)">
		<animateMotion dur="60s" repeatCount="indefinite" rotate="auto-reverse" >
			<mpath xlink:href="#path1"/>
		</animateMotion>
	</image>

	<image xlink:href="smiley.svg" width="100" height="100"
  transform="translate(-40 -80)">
		<animateMotion dur="62s" repeatCount="indefinite" rotate="auto-reverse" >
			<mpath xlink:href="#path1"/>
		</animateMotion>
	</image>

	<image xlink:href="smiley.svg" width="100" height="100"
  transform="translate(-40 -80)">
		<animateMotion dur="64s" repeatCount="indefinite" rotate="auto-reverse" >
			<mpath xlink:href="#path1"/>
		</animateMotion>
	</image>

	<image xlink:href="smiley.svg" width="100" height="100"
  transform="translate(-40 -80)">
		<animateMotion dur="66s" repeatCount="indefinite" rotate="auto-reverse" >
			<mpath xlink:href="#path1"/>
		</animateMotion>
	</image>

	<image xlink:href="smiley.svg" width="100" height="100"
  transform="translate(-40 -80)">
		<animateMotion dur="68s" repeatCount="indefinite" rotate="auto-reverse" >
			<mpath xlink:href="#path1"/>
		</animateMotion>
	</image>
	-->
</g>
</svg>

