<?xml version="1.0" encoding="UTF-8" standalone="no"?>
<svg xmlns="http://www.w3.org/2000/svg" version="1.1" viewBox="0 0 264 193">
 <style type="text/css">
  g#needle .needle {
    fill: #ed6f16;
  }
  g#needle.depressed .needle {
    fill: #b25211;
  }
 </style>
 <g transform="translate(-162.9 -327)">
  <path fill="#00afec" d="m392.2 400.6c-0.832-1.256-1.691-2.492-2.578-3.693l11.47-8.355c0.984 1.34 1.949 2.721 2.887 4.125l-11.78 7.923zm-194.8-1.961-11.62-8.145c0.965-1.363 1.945-2.707 2.957-4.059l11.31 8.576c-0.901 1.208-1.784 2.411-2.644 3.628zm188.1-7.072c-0.945-1.168-1.914-2.295-2.906-3.42l10.62-9.416c1.113 1.268 2.207 2.549 3.266 3.832l-10.98 9.004zm-181.2-1.803-10.8-9.189c1.094-1.295 2.195-2.543 3.332-3.768l10.45 9.596c-1.016 1.092-2.008 2.228-2.98 3.361zm173.7-6.533c-1.047-1.068-2.129-2.115-3.219-3.148l9.695-10.36c1.227 1.148 2.426 2.324 3.609 3.508l-10.08 9.995zm-166-1.66-9.883-10.18c1.203-1.172 2.426-2.312 3.676-3.428l9.492 10.56c-1.113 0.992-2.206 2.008-3.285 3.047zm157.7-5.932c-1.145-0.963-2.309-1.908-3.5-2.824l8.664-11.24c1.328 1.025 2.641 2.076 3.926 3.152l-9.09 10.91zm-149.3-1.496-8.875-11.07c1.305-1.047 2.629-2.072 3.977-3.066l8.461 11.4c-1.199 0.892-2.391 1.805-3.563 2.736zm140.4-5.271c-1.23-0.844-2.48-1.668-3.746-2.473l7.562-12.01c1.418 0.893 2.828 1.812 4.203 2.76l-8.019 11.72zm-131.3-1.332-7.801-11.86c1.406-0.924 2.828-1.816 4.27-2.689l7.332 12.16c-1.285 0.763-2.543 1.56-3.801 2.388zm121.7-4.573c-1.309-0.725-2.637-1.428-3.973-2.107l6.418-12.65c1.492 0.756 2.957 1.535 4.43 2.344l-6.875 12.42zm-112.1-1.136-6.621-12.55c1.484-0.785 2.988-1.541 4.504-2.264l6.133 12.8c-1.356 0.652-2.692 1.324-4.016 2.02zm102-3.815c-1.359-0.598-2.75-1.168-4.137-1.717l5.18-13.21c1.555 0.613 3.102 1.248 4.625 1.916l-5.668 13.01zm-91.82-0.949-5.391-13.13c1.551-0.637 3.125-1.236 4.703-1.816l4.898 13.32c-1.425 0.516-2.82 1.059-4.21 1.627zm81.34-3.023c-1.414-0.461-2.836-0.9-4.277-1.305l3.859-13.67c1.613 0.457 3.227 0.953 4.82 1.48l-4.402 13.49zm-70.75-0.733-4.109-13.58c1.598-0.488 3.215-0.939 4.844-1.367l3.582 13.74c-1.445 0.379-2.887 0.772-4.317 1.211zm59.93-2.232c-1.457-0.328-2.918-0.619-4.391-0.891l2.547-13.96c1.652 0.301 3.305 0.629 4.938 0.992l-3.094 13.86zm-49.05-0.5-2.777-13.92c1.633-0.332 3.281-0.631 4.945-0.895l2.258 14.02c-1.477 0.236-2.962 0.5-4.426 0.795zm38-1.409c-1.469-0.188-2.957-0.34-4.457-0.471l1.215-14.14c1.668 0.145 3.32 0.32 4.984 0.523l-1.742 14.09zm-26.9-0.263-1.473-14.12c1.664-0.168 3.336-0.316 5.023-0.428l0.938 14.17c-1.496 0.099-2.996 0.222-4.488 0.375zm15.71-0.58c-1.488-0.047-2.988-0.062-4.492-0.043l-0.125-14.2c1.688-0.008 3.363 0.012 5.035 0.061l-0.418 14.19z"/>
  <path fill="#fff100" d="m386.3 404.6c-0.785-1.168-1.594-2.332-2.418-3.457l22.94-16.72c1.043 1.412 2.055 2.867 3.047 4.348l-23.57 15.82zm-183.1-1.8-23.2-16.3c1.008-1.432 2.051-2.852 3.113-4.275l22.63 17.15c-0.851 1.137-1.68 2.264-2.496 3.416zm144.5-33.53c-1.25-0.682-2.484-1.344-3.758-1.988l12.85-25.32c1.562 0.791 3.113 1.607 4.645 2.455l-13.74 24.85zm-105.2-1.1-13.3-25.2c1.566-0.828 3.148-1.623 4.746-2.391l12.27 25.6c-1.269 0.599-2.53 1.236-3.773 1.9zm54.93-12.69c-1.402-0.039-2.809-0.051-4.219-0.039l-0.25-28.4c1.773-0.012 3.539 0.008 5.301 0.057l-0.832 28.38z"/>
  <g fill="#fff">
   <path d="m179.7 449.9c0 2.305-0.883 4.148-2.641 5.523-1.281 0.992-2.754 1.484-4.418 1.484-0.766 0-1.582-0.109-2.449-0.336-2.336-0.578-4.461-1.93-6.383-4.078-0.414-0.477-0.625-1.07-0.625-1.773 0-1.477 0.723-2.305 2.16-2.5 1.184-0.156 2.371 0.562 3.555 2.164 0.766 1.055 1.855 1.586 3.262 1.586 1.41 0 2.211-0.547 2.402-1.633 0.16-1.062-0.625-2.227-2.352-3.5-0.16-0.125-1.473-0.945-3.938-2.445-3.07-1.859-4.609-3.922-4.609-6.195 0-2.016 0.832-3.664 2.496-4.945 1.535-1.18 3.344-1.773 5.426-1.773 2.016 0 3.984 0.562 5.902 1.68 0.898 0.516 1.344 1.297 1.344 2.352 0 1.57-0.832 2.352-2.496 2.352-0.254 0-1-0.25-2.23-0.742-1.23-0.5-2.297-0.75-3.191-0.75-1.312 0-1.969 0.609-1.969 1.828 0 1.148 1.281 2.25 3.84 3.312 4.61 1.85 6.914 4.646 6.914 8.389z"/>
   <path d="m194.7 455.4c0 0.703-0.242 1.289-0.723 1.758-0.48 0.453-1.07 0.695-1.773 0.695-0.449 0-0.883-0.094-1.297-0.289-1.727-0.766-2.688-1.219-2.879-1.344-1.25-0.766-1.875-1.633-1.875-2.594l0.051-27.59c0-0.805 0.254-1.461 0.766-1.969 0.512-0.516 1.168-0.766 1.969-0.766s1.465 0.25 1.992 0.766c0.527 0.508 0.793 1.164 0.793 1.969l-0.051 25.82c2.019 0.892 3.027 2.079 3.027 3.548z"/>
   <path d="m218.1 442.5c0 3.359-0.848 6.445-2.543 9.266-1.953 3.266-4.512 4.898-7.68 4.898-0.578 0-1.168-0.07-1.777-0.195-2.305-0.477-4.047-1.742-5.23-3.789-1.059-1.797-1.586-3.953-1.586-6.484 0-3.359 0.848-6.43 2.543-9.219 1.984-3.258 4.547-4.891 7.68-4.891 0.578 0 1.168 0.062 1.777 0.188 2.305 0.484 4.047 1.75 5.23 3.797 1.058 1.757 1.586 3.906 1.586 6.429zm-5.473 0.242c0-0.961-0.191-1.953-0.574-2.977-0.48-1.242-1.121-1.953-1.922-2.109-1.184-0.25-2.32 0.414-3.406 2.016-0.867 1.25-1.441 2.547-1.73 3.891-0.16 0.766-0.238 1.57-0.238 2.398 0 0.961 0.191 1.953 0.574 2.977 0.48 1.25 1.121 1.953 1.922 2.117 0.801 0.156 1.68-0.195 2.641-1.062 1.215-1.086 2.047-2.703 2.496-4.852 0.159-0.766 0.237-1.571 0.237-2.399z"/>
   <path d="m252.5 438.1c0 0.289-0.051 0.586-0.145 0.914-1.312 4.25-2.176 6.938-2.594 8.062-1.086 2.883-2.43 5.352-4.031 7.398-0.672 0.859-1.344 1.297-2.016 1.297-1.441 0-2.91-1.734-4.418-5.188-0.414-0.93-1.168-3.008-2.254-6.242-0.734 1.438-1.84 3.594-3.312 6.477-2.176 4.094-4 6.141-5.473 6.141-0.801 0-1.52-0.641-2.16-1.914-2.59-5.312-3.887-10.88-3.887-16.7 0-0.359 0.031-1.016 0.098-1.969 0.125-1.734 1.039-2.586 2.734-2.586 0.863 0 1.551 0.273 2.062 0.836 0.508 0.562 0.738 1.273 0.672 2.141-0.031 0.477-0.047 1.008-0.047 1.578 0 2.883 0.449 5.875 1.344 8.977l6.336-11.33c0.672-1.211 1.52-1.82 2.543-1.82 1.25 0 2.098 0.828 2.547 2.492 0.863 3.328 1.984 6.758 3.359 10.27 0.574-1.219 1.648-4.406 3.215-9.555 0.418-1.312 1.266-1.969 2.543-1.969 0.801 0 1.48 0.25 2.043 0.75 0.559 0.493 0.841 1.133 0.841 1.938z"/>
   <path d="m256.6 503.4c0 2.305-0.879 4.148-2.641 5.523-1.281 0.992-2.75 1.484-4.414 1.484-0.77 0-1.586-0.109-2.449-0.336-2.336-0.57-4.465-1.93-6.383-4.078-0.418-0.477-0.625-1.07-0.625-1.773 0-1.477 0.719-2.305 2.16-2.5 1.184-0.156 2.367 0.562 3.551 2.164 0.77 1.055 1.855 1.586 3.266 1.586 1.406 0 2.207-0.547 2.398-1.633 0.16-1.062-0.625-2.227-2.352-3.5-0.16-0.125-1.473-0.945-3.938-2.445-3.07-1.859-4.605-3.922-4.605-6.195 0-2.016 0.832-3.664 2.496-4.945 1.535-1.18 3.344-1.773 5.422-1.773 2.016 0 3.984 0.562 5.906 1.68 0.895 0.516 1.344 1.297 1.344 2.352 0 1.57-0.832 2.352-2.496 2.352-0.258 0-1-0.25-2.234-0.742-1.23-0.5-2.293-0.75-3.191-0.75-1.312 0-1.969 0.609-1.969 1.828 0 1.148 1.281 2.25 3.84 3.312 4.61 1.85 6.914 4.647 6.914 8.389z"/>
   <path d="m280.4 495.3c0 3.617-1.375 6.477-4.129 8.594-2.43 1.852-5.551 2.938-9.359 3.258v9.508c0 0.797-0.266 1.453-0.793 1.969-0.527 0.508-1.191 0.766-1.992 0.766s-1.453-0.258-1.969-0.766c-0.512-0.516-0.766-1.172-0.766-1.969v-28.99c0-0.797 0.246-1.461 0.742-1.992s1.145-0.789 1.945-0.789c1.441-0.039 2.336 0.602 2.688 1.914 1.727-1.375 3.473-2.062 5.234-2.062 2.492 0 4.559 1.172 6.191 3.5 1.47 2.116 2.208 4.467 2.208 7.061zm-5.473-1.102c-0.031-0.898-0.32-1.719-0.863-2.445-0.543-0.742-1.25-1.102-2.113-1.102-1.598 0-3.281 1.297-5.039 3.891v7.055c5.503-0.555 8.175-3.016 8.015-7.399z"/>
   <path d="m303.6 490.6c0 1.375-0.367 2.758-1.105 4.125-0.797 1.508-2.094 2.859-3.887 4.055-1.793 1.203-3.602 1.922-5.422 2.141-0.93 0.125-1.617 0.062-2.066-0.195 0.578 2.18 1.586 3.266 3.023 3.266 1.281 0 2.801-0.781 4.562-2.352 0.543-0.477 1.152-0.719 1.824-0.719 0.605 0 1.176 0.266 1.703 0.812s0.793 1.188 0.793 1.914c0 0.766-0.32 1.438-0.961 2.023-2.594 2.297-5.121 3.445-7.586 3.445-2.688 0-4.895-1.242-6.621-3.742-1.539-2.242-2.305-4.766-2.305-7.586 0-2.523 0.641-4.828 1.918-6.906 1.023-1.703 2.512-3.156 4.465-4.375s3.887-1.82 5.809-1.82c1.758 0 3.176 0.547 4.246 1.625 1.075 1.086 1.61 2.531 1.61 4.289zm-4.753 0.429c0-0.672-0.512-1.008-1.535-1.008-0.543 0-1.008 0.078-1.391 0.242-2.848 1.25-4.48 3.117-4.895 5.617 0.254 0.188 0.688 0.367 1.293 0.523 1.539-0.125 2.867-0.539 3.984-1.25 0.738-0.445 1.359-1.117 1.871-2.016 0.45-0.795 0.673-1.498 0.673-2.108z"/>
   <path d="m326 490.6c0 1.375-0.371 2.758-1.105 4.125-0.801 1.508-2.098 2.859-3.887 4.055-1.793 1.203-3.602 1.922-5.426 2.141-0.922 0.125-1.613 0.062-2.062-0.195 0.574 2.18 1.582 3.266 3.023 3.266 1.277 0 2.801-0.781 4.559-2.352 0.547-0.477 1.152-0.719 1.824-0.719 0.605 0 1.176 0.266 1.707 0.812 0.527 0.547 0.789 1.188 0.789 1.914 0 0.766-0.32 1.438-0.961 2.023-2.586 2.297-5.113 3.445-7.582 3.445-2.688 0-4.895-1.242-6.625-3.742-1.535-2.242-2.305-4.766-2.305-7.586 0-2.523 0.641-4.828 1.922-6.906 1.023-1.703 2.512-3.156 4.465-4.375 1.945-1.219 3.887-1.82 5.801-1.82 1.762 0 3.184 0.547 4.25 1.625 1.066 1.086 1.613 2.531 1.613 4.289zm-4.758 0.429c0-0.672-0.512-1.008-1.535-1.008-0.551 0-1.008 0.078-1.395 0.242-2.852 1.25-4.48 3.117-4.898 5.617 0.258 0.188 0.688 0.367 1.297 0.523 1.535-0.125 2.863-0.539 3.984-1.25 0.734-0.445 1.359-1.117 1.871-2.016 0.458-0.795 0.676-1.498 0.676-2.108z"/>
   <path d="m350.3 506.8c0 0.711-0.25 1.273-0.766 1.711-0.508 0.43-1.117 0.648-1.82 0.648-0.992 0-2.18-0.82-3.559-2.453-1.918 1.414-4.078 2.117-6.473 2.117-2.789 0-4.918-0.992-6.391-2.977-1.344-1.766-2.051-4.102-2.109-7.008-0.094-3.492 0.906-6.328 3-8.523s4.875-3.289 8.328-3.289c0.836 0 1.629 0.086 2.398 0.242v-8.211c0-0.797 0.266-1.461 0.797-1.992 0.523-0.523 1.188-0.789 1.992-0.789 0.793 0 1.449 0.266 1.961 0.789 0.516 0.531 0.77 1.195 0.77 1.992v24.1c1.254 1.345 1.872 2.556 1.872 3.641zm-7.391-6.765v-6.672c-0.316-0.125-0.621-0.336-0.91-0.625-1.246-0.445-2.621-0.352-4.129 0.289-1.023 0.445-1.82 1.211-2.402 2.281-0.578 1.07-0.863 2.203-0.863 3.383 0 1.156 0.242 2.148 0.719 2.977 0.547 1.055 1.348 1.617 2.406 1.68 0.992 0.062 2-0.227 3.023-0.859 0.734-0.484 1.164-0.852 1.297-1.109 0.25-0.54 0.543-0.994 0.859-1.345z"/>
   <path d="m364.3 427.3c0 0.766-0.262 1.438-0.785 2.016-0.531 0.578-1.18 0.867-1.945 0.867-0.609 0-1.172-0.195-1.68-0.586-1.602-1.18-2.805-1.773-3.602-1.773-1.055 0-1.582 0.961-1.582 2.891v4.703l2.785-1.109c0.414-0.156 0.781-0.234 1.102-0.234 0.766 0 1.41 0.297 1.922 0.883 0.508 0.594 0.762 1.273 0.762 2.047 0 1.148-0.59 1.961-1.77 2.445l-4.805 1.914v13.73c0 0.797-0.262 1.453-0.789 1.969-0.531 0.508-1.195 0.766-1.992 0.766-0.801 0-1.457-0.258-1.969-0.766-0.512-0.516-0.762-1.172-0.762-1.969v-11.66c-0.805 0.031-1.484-0.242-2.043-0.82-0.562-0.578-0.84-1.258-0.84-2.062 0-1.219 0.59-2.047 1.773-2.492l1.105-0.438v-6.906c0-2.406 0.508-4.32 1.531-5.766 1.188-1.664 2.914-2.492 5.188-2.492 2.336 0 4.754 0.914 7.25 2.734 0.763 0.569 1.146 1.272 1.146 2.108z"/>
   <path d="m387.5 453.6c0 0.773-0.285 1.445-0.859 2.016-0.578 0.586-1.246 0.867-2.016 0.867-0.867 0-1.555-0.367-2.066-1.094-0.289-0.453-0.77-1.141-1.441-2.07-1.758 1.914-3.906 2.883-6.43 2.883-2.562 0-4.672-0.906-6.336-2.719-1.664-1.805-2.5-4.008-2.5-6.594 0-3.648 1.328-6.984 3.984-10.01 2.656-3.024 5.797-4.539 9.414-4.539 0.957 0 1.73 0.109 2.301 0.336 1.891 0 2.816 0.93 2.785 2.781-0.129 7.719 0 12 0.387 12.87 0.543 1.273 1.262 2.477 2.156 3.594 0.421 0.516 0.621 1.078 0.621 1.68zm-8.492-6.141c-0.031-0.414-0.082-2.305-0.145-5.664-0.035-2.211-0.051-3.523-0.051-3.93-1.914 0.195-3.656 1.25-5.203 3.195-1.559 1.93-2.328 3.875-2.328 5.828 0 2.336 1.258 3.508 3.789 3.508 0.477 0 1.008-0.055 1.582-0.148 0.188-0.188 0.672-0.828 1.438-1.914 0.296-0.398 0.597-0.679 0.918-0.875z"/>
   <path d="m407.4 449.9c0 2.305-0.883 4.148-2.637 5.523-1.281 0.992-2.754 1.484-4.418 1.484-0.77 0-1.582-0.109-2.449-0.336-2.336-0.578-4.461-1.93-6.387-4.078-0.414-0.477-0.621-1.07-0.621-1.773 0-1.477 0.723-2.305 2.16-2.5 1.184-0.156 2.371 0.562 3.555 2.164 0.766 1.055 1.855 1.586 3.258 1.586 1.414 0 2.215-0.547 2.406-1.633 0.16-1.062-0.621-2.227-2.352-3.5-0.16-0.125-1.473-0.945-3.934-2.445-3.078-1.859-4.609-3.922-4.609-6.195 0-2.016 0.828-3.664 2.492-4.945 1.539-1.18 3.344-1.773 5.43-1.773 2.016 0 3.98 0.562 5.898 1.68 0.902 0.516 1.348 1.297 1.348 2.352 0 1.57-0.832 2.352-2.496 2.352-0.254 0-1-0.25-2.234-0.742-1.234-0.5-2.297-0.75-3.191-0.75-1.312 0-1.965 0.609-1.965 1.828 0 1.148 1.277 2.25 3.836 3.312 4.609 1.85 6.91 4.646 6.91 8.389z"/>
   <path d="m426.6 436.9c0 1.219-0.605 2.047-1.824 2.5l-3.789 1.438v13.97c0 0.797-0.262 1.461-0.797 1.992-0.523 0.523-1.188 0.789-1.984 0.789-0.801 0-1.457-0.266-1.969-0.789-0.512-0.531-0.77-1.195-0.77-1.992v-11.86l-0.762 0.289c-0.449 0.156-0.816 0.242-1.105 0.242-0.77 0-1.402-0.289-1.895-0.867-0.5-0.578-0.746-1.25-0.746-2.016 0-1.219 0.59-2.055 1.773-2.492l2.734-1.062v-7.875c0-0.961 0.344-1.797 1.031-2.523 0.688-0.719 1.516-1.078 2.477-1.078 1.344 0 2.016 0.719 2.016 2.164v7.195l1.82-0.719c0.32-0.125 0.688-0.195 1.105-0.195 0.766 0 1.41 0.289 1.914 0.867 0.513 0.584 0.771 1.256 0.771 2.022z"/>
  </g>
 </g>
 <rect x="0" y="0" width="264" height="90" fill="none" id="dialHitBox"
   pointer-events="all"/>
 <g transform="translate(-162.4 -342.9)" pointer-events="none">
  <g transform="rotate(30 295.1 481.6)" id="needle">
   <path d="m295.1 481.6c-6 0-9.559-20.37-7.91-45.25l4.91-74c1.652-24.89 4.352-24.89 6.004 0l4.906 74c1.649 24.88-1.906 45.25-7.91 45.25z" class="needle"/>
   <path d="m295.1 470.7c6.027 0 10.92 4.891 10.92 10.91 0 6.031-4.891 10.92-10.92 10.92-6.027 0-10.91-4.891-10.91-10.92 0-6.023 4.887-10.91 10.91-10.91z" class="needle"/>
   <polygon points="287.8 426.3 284.1 481.6 306 481.6 302.3 426.3" class="needle"/>
   <path fill="#fff" d="m295.1 476.1c3.023 0 5.477 2.445 5.477 5.469 0 3.031-2.453 5.477-5.477 5.477s-5.477-2.445-5.477-5.477c0-3.023 2.454-5.469 5.477-5.469z"/>
  </g>
 </g>
 <script type="text/javascript">
 <![CDATA[
  // Add methods to document to control the SVG file

  const MIN_ANGLE = -55;
  const MAX_ANGLE = 55;

  document.getLeft = function() {
    return document.documentElement.getBBox().x;
  }

  document.getWidth = function() {
    return document.documentElement.getBBox().width;
  }

  document.depressNeedle = function() {
    getNeedle().setAttribute("class", "depressed");
  }

  document.releaseNeedle = function() {
    getNeedle().removeAttribute("class");
  }

  document.moveNeedle = function(offset) {
    var angle = MIN_ANGLE + offset * (MAX_ANGLE - MIN_ANGLE);
    getNeedle().setAttribute("transform", "rotate(" + angle + " 295.1 481.6)");
  }

  function getNeedle() {
    return document.getElementById("needle");
  }
 ]]>
 </script>
</svg>
