<?xml version="1.0" encoding="UTF-8" standalone="no"?>
<svg version="1.1" xmlns="http://www.w3.org/2000/svg"
  viewBox="0 0 235 131" width="100%" height="100%">
 <g transform="matrix(1.25 0 0 -1.25 81.79 128.3)">
  <g transform="translate(-10,48)">
   <path d="m0 0 100 7 20-10.5s-17-16.17-22.5-16.83c-5.5-0.67-35.5-4.34-59.67 1-24.16 5.33-37.83 8.66-44.66 11-0.227 0.073 6.83 8.33 6.83 8.33" fill="#008d62"/>
   <path d="m0 0 100 7 20-10.5s-17-16.17-22.5-16.83c-5.5-0.67-35.5-4.34-59.67 1-24.16 5.33-37.83 8.66-44.66 11-0.227 0.073 6.83 8.33 6.83 8.33z" stroke="#008d62" stroke-miterlimit="10" fill="none"/>
   <path d="m0 0 93.04 32.03 25.86-10.5-19.69-14.34-99.21-7.19z" stroke="#c24243" stroke-miterlimit="10" fill="none"/>
   <path d="m0 0 93.04 32.03 25.86-10.5-19.69-14.34-99.21-7.19z" fill="#c24243"/>
   <path d="m0 0c39.83 27 36.83 25 46.33 31 20.07 12.68 63.33 32 85.05 17.49 0.189-0.126-17.28-18.41-17.28-18.41l-93.1-32.42-21 2.34z" stroke="#dab117" stroke-miterlimit="10" fill="none"/>
   <path d="m0 0c39.83 27 36.83 25 46.33 31 20.07 12.68 63.33 32 85.05 17.49 0.189-0.126-17.28-18.41-17.28-18.41l-93.1-32.42-21 2.34z" fill="#dab117"/>
  </g>
  <path d="m0 0-24.75 12.16-24.04-13.49 3.915 27.29-20.26 18.7 27.17 4.711 11.52 25.05l12.87-24.38 27.39-3.22-19.21-19.78 5.4-27.04z" fill="#fff"/>
 </g>
</svg>
