<?xml version="1.0" encoding="UTF-8" standalone="no"?>
<svg version="1.1" xmlns="http://www.w3.org/2000/svg"
  viewBox="0 0 251 146" width="100%" height="100%">
 <g transform="matrix(1.25,0,0,-1.25,-464,573.5)">
  <g transform="translate(509.2 373.6)">
   <path d="m0 0c-48.11-1.258-44.5-1.189-55.74-1.118-23.74 0.148-70.59 7.208-81.05 31.14-0.09 0.209 24.48 6.189 24.48 6.189l95.88-22.92 16.42-13.29z" fill="#dab117"/>
  </g>
  <g transform="translate(509.2 373.6)">
   <path d="m0 0c-48.11-1.258-44.5-1.189-55.74-1.118-23.74 0.148-70.59 7.208-81.05 31.14-0.09 0.209 24.48 6.189 24.48 6.189l95.88-22.92 16.42-13.29z" stroke="#dab117" stroke-miterlimit="10" fill="none"/>
  </g>
  <g transform="translate(492.7 387.4)">
   <path d="m0 0-95.62 23.21-16.09 22.77 24.29 1.465l87.41-47.44z" fill="#c24243"/>
  </g>
  <g transform="translate(492.7 387.4)">
   <path d="m0 0-95.62 23.21-16.09 22.77 24.29 1.465l87.41-47.44z" stroke="#c24243" stroke-miterlimit="10" fill="none"/>
  </g>
  <g transform="translate(493.4 387.7)">
   <path d="m0 0-87.98 48.04-11.18 19.63s23.03 4.445 28.02 2.041c4.992-2.405 32.23-15.5 49.71-33.02 17.47-17.53 27.18-27.71 31.68-33.36 0.15-0.182-10.25-3.33-10.25-3.33" fill="#008d62"/>
  </g>
  <g transform="translate(493.4 387.7)">
   <path d="m0 0-87.98 48.04-11.18 19.63s23.03 4.445 28.02 2.041c4.992-2.405 32.23-15.5 49.71-33.02 17.47-17.53 27.18-27.71 31.68-33.36 0.15-0.182-10.25-3.33-10.25-3.33z" stroke="#008d62" stroke-miterlimit="10" fill="none"/>
  </g>
  <g transform="translate(529.6 419.4)">
   <path d="m0 0 14.28-23.58 27.53-1.604-18.02-20.87 6.981-26.68-25.42 10.68-23.21-14.88 2.306 27.48-21.33 17.48 26.85 6.296l10.03 25.67z" fill="#fff"/>
  </g>
 </g>
</svg>
