<?xml version="1.0" encoding="UTF-8" standalone="no"?>
<svg version="1.1" xmlns="http://www.w3.org/2000/svg"
  xmlns:xlink="http://www.w3.org/1999/xlink"
  viewBox="0 0 480 138" width="100%" height="100%">
  <defs>
  <filter id="glow" filterUnits="objectBoundingBox" x="-30%" y="-30%"
   width="160%" height="160%">
   <feMorphology in="SourceAlpha" radius="4" operator="dilate"/>
   <feGaussianBlur stdDeviation="5" result="blur"/>
   <feFlood flood-color="#ffc" flood-opacity=".8" result="mask"/>
   <feComposite in="mask" in2="blur" operator="in" result="glow"/>
  </filter>
  <style>
   .glow {
     transition-property: opacity;
     transition-duration: 0.35s;
     -moz-transition-property: opacity;
     -moz-transition-duration: 0.35s;
     -webkit-transition-property: opacity;
     -webkit-transition-duration: 0.35s;
     -o-transition-property: opacity;
     -o-transition-duration: 0.35s;
     filter: url(#glow);
     opacity: 0;
   }
   .active {
     transition-property: opacity;
     transition-duration: 0.35s;
     -moz-transition-property: opacity;
     -moz-transition-duration: 0.35s;
     -webkit-transition-property: opacity;
     -webkit-transition-duration: 0.35s;
     -o-transition-property: opacity;
     -o-transition-duration: 0.35s;
     opacity: 1;
   }
  </style>
 </defs>
 <g fill="#964496">
   <use xlink:href="#xLargeStar" id="xLargeStarGlow"
    class="glow"/>
   <path d="m54.6 92.1-24.8-27.6-36.9 4.3 18.6-32.2-15.5-33.8 36.3 7.8 27.4-25.2 3.8 37 32.4 18.2-33.9 15.1z" transform="translate(25.5 26.7)" id="xLargeStar"/>
   <use xlink:href="#largeStar" id="largeStarGlow"
    class="glow"/>
   <path d="m206 132-19.7-19.5-26.5 5.43 12.5-24.8-13.4-23.6 27.4 4.2 18.3-20 4.49 27.4 24.7 11.2-24.7 12.7z" transform="translate(0,-8)" id="largeStar"/>
   <use xlink:href="#mediumStar" id="mediumStarGlow"
    class="glow"/>
   <path d="m322 94.9-19.4-5.34-15.2 13.2-0.917-20.1-17.2-10.4 18.8-7.08 4.58-19.6 12.6 15.7 20-1.7-11.1 16.8z" transform="translate(0,-8)" id="mediumStar"/>
   <use xlink:href="#smallStar" id="smallStarGlow"
    class="glow"/>
   <path d="m403 31-6.05 10.1 5.06 10.7-11.5-2.63-8.58 8.11-1.06-11.8l-10-5.6 10.9-4.64 2.17-11.6 7.77 8.89z" transform="translate(0,-8)" id="smallStar"/>
 </g>
 <g fill="none" pointer-events="all">
  <rect height="138" width="133" class="hitRegion" id="xLarge"/>
  <rect height="138" width="117" x="133" class="hitRegion" id="large"/>
  <rect height="138" width="99" x="250" class="hitRegion" id="medium"/>
  <rect height="138" width="130" x="349" class="hitRegion" id="small"/>
 </g>
</svg>
