<?xml version="1.0" encoding="UTF-8" standalone="no"?>
<!-- This Source Code Form is subject to the terms of the Mozilla Public
   - License, v. 2.0. If a copy of the MPL was not distributed with this file,
   - You can obtain one at http://mozilla.org/MPL/2.0/.  -->
<svg xmlns="http://www.w3.org/2000/svg" version="1.1"
 viewBox="0 0 81 83" width="100%" height="100%">
<g transform="translate(-257.1 -380.1)">
 <radialGradient id="SVGID_1_" gradientUnits="userSpaceOnUse" cy="244.1" cx="340" gradientTransform="matrix(.6406 .7678 -.7678 .6406 287 -12.99)" r="7.152">
  <stop stop-color="#FFFEF5" offset="0"/>
  <stop stop-color="#B6C0D1" offset="1"/>
 </radialGradient>
 <path fill="url(#SVGID_1_)" d="m312 399.7c-2.285 2.6-2.43 6.541-0.133 9.287 2.262 2.719 6.117 3.307 9.07 1.582-1.914-0.969-3.836-2.475-5.484-4.455-1.711-2.05-2.863-4.287-3.453-6.414z"/>
 <radialGradient id="SVGID_2_" gradientUnits="userSpaceOnUse" cy="244.1" cx="355.3" gradientTransform="matrix(.6406 .7678 -.7678 .6406 287 -12.99)" r="7.154">
  <stop stop-color="#FFFEF5" offset="0"/>
  <stop stop-color="#B6C0D1" offset="1"/>
 </radialGradient>
 <path fill="url(#SVGID_2_)" d="m321.9 411.5c-2.293 2.6-2.434 6.541-0.141 9.287 2.266 2.715 6.117 3.305 9.074 1.582-1.918-0.971-3.832-2.475-5.488-4.457-1.706-2.047-2.859-4.283-3.445-6.412z"/>
 <radialGradient id="SVGID_3_" gradientUnits="userSpaceOnUse" cy="244.1" cx="324.7" gradientTransform="matrix(.6406 .7678 -.7678 .6406 287 -12.99)" r="7.157">
  <stop stop-color="#FFFEF5" offset="0"/>
  <stop stop-color="#B6C0D1" offset="1"/>
 </radialGradient>
 <path fill="url(#SVGID_3_)" d="m302.2 388c-2.287 2.607-2.43 6.549-0.139 9.291 2.266 2.719 6.117 3.311 9.078 1.584-1.922-0.971-3.836-2.475-5.484-4.457-1.713-2.051-2.866-4.284-3.455-6.418z"/>
 <radialGradient id="SVGID_4_" gradientUnits="userSpaceOnUse" cy="244.3" cx="340" gradientTransform="matrix(.6406 .7678 -.7678 .6406 287 -12.99)" r="22.67">
  <stop stop-color="#FFFEF5" offset="0"/>
  <stop stop-color="#B6C0D1" offset="1"/>
 </radialGradient>
 <path fill="url(#SVGID_4_)" d="m337.6 429c-1.598 1.328-12.02-8.537-23.29-22.04-11.26-13.5-19.1-25.52-17.5-26.86 1.598-1.328 12.02 8.535 23.28 22.04 11.27 13.5 19.1 25.52 17.51 26.86z"/>
 <radialGradient id="SVGID_5_" gradientUnits="userSpaceOnUse" cy="242.6" cx="340" gradientTransform="matrix(.6406 .7678 -.7678 .6406 287 -12.99)" r="10.43">
  <stop stop-color="#FFFEF5" offset="0"/>
  <stop stop-color="#B6C0D1" offset="1"/>
 </radialGradient>
 <path fill="url(#SVGID_5_)" d="m326.6 396.8c-3.688-4.422-10.27-5.02-14.7-1.324-0.422 0.344-0.766 0.744-1.117 1.141 0.859 3.109 2.539 6.367 5.031 9.361 2.406 2.883 5.203 5.086 8 6.498 0.5-0.287 0.996-0.596 1.453-0.984 4.43-3.692 5.024-10.27 1.328-14.69z"/>
 <radialGradient id="SVGID_6_" gradientUnits="userSpaceOnUse" cy="235.1" cx="340.2" gradientTransform="matrix(.6406 .7678 -.7678 .6406 287 -12.99)" r="14.93">
  <stop stop-color="#FFFEF5" offset="0"/>
  <stop stop-color="#B6C0D1" offset="1"/>
 </radialGradient>
 <path fill="url(#SVGID_6_)" d="m326.6 396.8c-3.688-4.422-10.27-5.02-14.7-1.324-0.422 0.344-0.766 0.744-1.117 1.141 0.859 3.109 2.539 6.367 5.031 9.361 2.406 2.883 5.203 5.086 8 6.498 0.5-0.287 0.996-0.596 1.453-0.984 4.43-3.692 5.024-10.27 1.328-14.69z"/>
</g>
<g transform="translate(-257.1 -380.1)">
 <radialGradient id="SVGID_7_" gradientUnits="userSpaceOnUse" cy="418.6" cx="261.3" r="57.72">
  <stop stop-color="#FFFEF5" offset="0"/>
  <stop stop-color="#C490BF" offset="1"/>
 </radialGradient>
 <path fill="url(#SVGID_7_)" d="m260.3 414c-1.878 0-3.263 1.529-3.077 3.398l4.15 41.78c0.186 1.869 1.875 3.398 3.753 3.398h34.55c1.878 0 3.567-1.529 3.753-3.398l4.148-41.78c0.186-1.869-1.199-3.398-3.077-3.398h-44.2zm9.702 41.42c-0.086 0.012-0.17 0.016-0.254 0.016h-1.359c-0.71-1.328-1.437-3.944-1.615-5.813l-2.111-22.16c-0.178-1.869 0.097-4.645 0.611-6.167l1.463-0.137c1.484-0.162 1.484-0.162 1.484-0.162 0.781 1.407 1.566 4.089 1.744 5.958l2.113 22.16c0.178 1.869-0.096 4.646-0.609 6.169 0-0.001 0-0.001-1.467 0.132zm15.4-6.064c0 1.878-0.535 4.614-1.189 6.079h-1.475-1.475c-0.656-1.465-1.193-4.201-1.193-6.079v-22.13c0-1.878 0.537-4.615 1.193-6.083h1.475 1.475c0.654 1.468 1.189 4.205 1.189 6.083v22.13zm13.3 0.266c-0.178 1.869-0.905 4.485-1.615 5.813h-1.361c-0.082 0-0.17-0.004-0.252-0.016l-1.469-0.133c-0.512-1.523-0.786-4.3-0.608-6.169l2.108-22.16c0.178-1.869 0.965-4.547 1.75-5.95l1.482 0.154 1.465 0.137c0.514 1.522 0.788 4.298 0.609 6.167l-2.109 22.16z"/>
</g>
<rect width="100%" height="100%" fill="none" pointer-events="all"/>
</svg>
