<?xml version="1.0" standalone="no"?>
<!-- This Source Code Form is subject to the terms of the Mozilla Public
   - License, v. 2.0. If a copy of the MPL was not distributed with this file,
   - You can obtain one at http://mozilla.org/MPL/2.0/.  -->
<!DOCTYPE svg PUBLIC "-//W3C//DTD SVG 1.1//EN"
  "http://www.w3.org/Graphics/SVG/1.1/DTD/svg11.dtd">
<svg viewBox="0 0 1280 800"
   preserveAspectRatio="none"
     xmlns="http://www.w3.org/2000/svg" version="1.1"
     xmlns:xlink="http://www.w3.org/1999/xlink"
     onload="Main.init();">

  <style type="text/css"><![CDATA[
    svg {background-color: black}
    #back-layer-path { fill:#338833; stroke:none; stroke-width:1 }
    #main-layer-path { fill:#33cc33; stroke:none; stroke-width:1 }
    #front-layer-path { fill:#33ff33; stroke:none; stroke-width:1 }
    #back-layer-path { fill:none; stroke:none; stroke-width:1 }
    #main-layer-path { fill:none; stroke:none; stroke-width:1 }
    #front-layer-path { fill:none; stroke:none; stroke-width:1 }
    .shadow {fill-opacity: 0.3; fill:black;}
  ]]></style>

  <script xlink:href="js/jquery-1.7.1.min.js"></script>
  <script xlink:href="js/main.js"></script>
  <script>
    var TYPE = 1;
  </script>
  <defs>
    <filter id="shadow" x="-5%" width="110%" height="200%">
      <feGaussianBlur in="SourceAlpha" result="blur" stdDeviation="8"/>
    </filter>
  </defs>

  <image xlink:href="images/back01.jpg" width="2560" height="1024">
    <animateTransform attributeName="transform" type="translate"
      from="-2555 -200" to="2555 -200" begin="-60s" repeatCount="indefinite"
      dur="120s"/>
  </image>
  <image xlink:href="images/back02.jpg" width="2560" height="1024">
    <animateTransform attributeName="transform" type="translate"
      from="-2555 -200" to="2555 -200" repeatCount="indefinite" dur="120s"/>
  </image>

  <image xlink:href="images/groundTRIMED.png" transform="translate(0 564)"
    width="1280" height="254"/>

  <g transform="translate(-1050 20)" >

    <image xlink:href="images/oku.png" width="3400" height="3400">
      <animateTransform attributeName="transform" type="rotate"
        from="0 1700 1700" to="360 1700 1700"
        repeatCount="indefinite" additive="sum" dur="300s" />
    </image>

    <image xlink:href="images/naka.png" width="3400" height="3400">
      <animateTransform id="time-base" attributeName="transform" type="rotate"
        from="0 1700 1700" to="360 1700 1700"
        repeatCount="indefinite" additive="sum" dur="240s"/>
    </image>

    <g id="main-layer">
      <animateTransform attributeName="transform" type="rotate"
        from="0 1700 1700" to="360 1700 1700" repeatCount="indefinite"
        additive="sum" dur="240s"/>
      <path id="main-layer-path" pathLength="1"
        style="fill:none;stroke:none;stroke-width:2"
        d="M2560.75,993.206C2655.477,1008.112,2737,1061,2769,1109
        c156.546-24.52,148,4,100,116c116,156-55.213,271.946-55.213,271.946s7.713,148.378,7.713,211.054
        c0,80.212,7.804,92.91-8.359,168.295c74.843,53.446,90.96,61.39,90.96,94.499S2845,2045,2845,2045s28,60-8,104
        c-41.158,50.305-119.229,56.497-156,112c-106,160-252.906,299.25-421.047,398.5c-21,12.396-41.195,42.765-42.953,69.5
        c-6.52,99.168-20,284.964-252.766,284.964c-131.892,0-160.114-54.831-235.234-124.964c-39.984-29.027-80.52-62.262-146.578-79.94
        c-85.45-10.974-89.047-7.342-190.146-37.647c-355.71-106.629-395.009-183.649-612.561-477.465
        c-9.029-12.194-550.446,7.48-550.715-160.947c-0.182-114,349.077-141.521,407.087-165.469
        c-15.767-97.042-22.395-448.727,0.527-537.59C760.031,951.474,1194.486,598,1711.5,598
        C2052.247,598,2357.134,751.538,2560.75,993.206z"/>
    </g>

    <image xlink:href="images/temae.png" width="3400" height="3400">
      <animateTransform attributeName="transform" type="rotate"
        from="0 1700 1700" to="360 1700 1700" repeatCount="indefinite"
        additive="sum" dur="200s"/>
    </image>
  </g>
</svg>
