<?xml version="1.0" encoding="UTF-8" standalone="no"?>
<!-- This Source Code Form is subject to the terms of the Mozilla Public
   - License, v. 2.0. If a copy of the MPL was not distributed with this file,
   - You can obtain one at http://mozilla.org/MPL/2.0/.  -->
<svg xmlns="http://www.w3.org/2000/svg" version="1.1"
 viewBox="0 0 130 76" width="100%" height="100%">
<g transform="translate(-185.9 -358.1)">
 <polygon stroke="#d9b000" points="263 389.1 250.9 366.5 238.8 389.1 215.7 377.9 219.1 403.3 193.9 407.9 211.6 426.4 207.6 430.6 294.2 430.6 290.2 426.4 307.9 407.9 282.7 403.3 286.1 377.9" stroke-miterlimit="10" stroke-width="7.504" fill="#d9b000"/>
</g>
<g stroke-linejoin="round" transform="translate(-185.9 -358.1)" stroke="#1d2c69" stroke-miterlimit="10" stroke-width="8" fill="#1d2c69">
 <path d="m238.9 413.1c0 0.59-0.156 1.855-0.468 3.796-0.208 1.282-1.352 2.704-3.432 4.264-2.288 1.732-4.68 2.6-7.176 2.6-3.64 0-6.743-1.959-9.308-5.876-0.347-0.52-0.52-1.075-0.52-1.664 0-0.832 0.312-1.542 0.936-2.132 0.624-0.589 1.352-0.884 2.184-0.884 1.04 0 1.854 0.468 2.444 1.404 1.317 2.01 2.894 3.016 4.732 3.016 0.97 0 1.976-0.295 3.016-0.884 0.832-0.451 1.248-0.746 1.248-0.884 0.242-1.421 0.364-2.426 0.364-3.016v-3.848c-1.838 0.902-3.658 1.352-5.46 1.352-1.595 0-3.068-0.381-4.42-1.144-3.883-2.218-5.824-5.581-5.824-10.09 0-2.773 0.797-5.165 2.392-7.176 1.733-2.184 3.952-3.276 6.656-3.276 2.184 0 4.472 0.763 6.864 2.288 0.45-1.248 1.386-1.872 2.808-1.872 0.901 0 1.62 0.269 2.158 0.806 0.537 0.538 0.806 1.257 0.806 2.158v21.06zm-5.98-11.23-0.208-4.212c-2.15-2.045-4.039-3.068-5.668-3.068-1.144 0-2.028 0.486-2.652 1.456-0.59 0.832-0.884 1.838-0.884 3.016 0 1.352 0.346 2.479 1.04 3.38 0.797 1.04 1.837 1.56 3.12 1.56 1.561 0 3.311-0.71 5.252-2.132z"/>
 <path d="m263.6 401.5c0 3.64-0.919 6.986-2.756 10.04-2.115 3.536-4.888 5.304-8.32 5.304-0.624 0-1.266-0.07-1.924-0.208-2.496-0.52-4.386-1.889-5.668-4.108-1.144-1.941-1.716-4.281-1.716-7.02 0-3.64 0.918-6.968 2.756-9.984 2.149-3.536 4.922-5.304 8.32-5.304 0.624 0 1.265 0.07 1.924 0.208 2.496 0.52 4.385 1.89 5.668 4.108 1.144 1.907 1.716 4.23 1.716 6.968zm-5.928 0.26c0-1.04-0.208-2.114-0.624-3.224-0.52-1.352-1.214-2.114-2.08-2.288-1.283-0.277-2.514 0.451-3.692 2.184-0.936 1.352-1.56 2.756-1.872 4.212-0.174 0.832-0.26 1.699-0.26 2.6 0 1.04 0.208 2.115 0.624 3.224 0.52 1.352 1.213 2.115 2.08 2.288 0.866 0.174 1.82-0.208 2.86-1.144 1.317-1.178 2.218-2.929 2.704-5.252 0.173-0.832 0.26-1.698 0.26-2.6z"/>
</g>
<g transform="translate(-185.9 -358.1)" fill="#fff">
 <path d="m238.9 413.1c0 0.59-0.156 1.855-0.468 3.796-0.208 1.282-1.352 2.704-3.432 4.264-2.288 1.732-4.68 2.6-7.176 2.6-3.64 0-6.743-1.959-9.308-5.876-0.347-0.52-0.52-1.075-0.52-1.664 0-0.832 0.312-1.542 0.936-2.132 0.624-0.589 1.352-0.884 2.184-0.884 1.04 0 1.854 0.468 2.444 1.404 1.317 2.01 2.894 3.016 4.732 3.016 0.97 0 1.976-0.295 3.016-0.884 0.832-0.451 1.248-0.746 1.248-0.884 0.242-1.421 0.364-2.426 0.364-3.016v-3.848c-1.838 0.902-3.658 1.352-5.46 1.352-1.595 0-3.068-0.381-4.42-1.144-3.883-2.218-5.824-5.581-5.824-10.09 0-2.773 0.797-5.165 2.392-7.176 1.733-2.184 3.952-3.276 6.656-3.276 2.184 0 4.472 0.763 6.864 2.288 0.45-1.248 1.386-1.872 2.808-1.872 0.901 0 1.62 0.269 2.158 0.806 0.537 0.538 0.806 1.257 0.806 2.158v21.06zm-5.98-11.23-0.208-4.212c-2.15-2.045-4.039-3.068-5.668-3.068-1.144 0-2.028 0.486-2.652 1.456-0.59 0.832-0.884 1.838-0.884 3.016 0 1.352 0.346 2.479 1.04 3.38 0.797 1.04 1.837 1.56 3.12 1.56 1.561 0 3.311-0.71 5.252-2.132z"/>
 <path d="m263.6 401.5c0 3.64-0.919 6.986-2.756 10.04-2.115 3.536-4.888 5.304-8.32 5.304-0.624 0-1.266-0.07-1.924-0.208-2.496-0.52-4.386-1.889-5.668-4.108-1.144-1.941-1.716-4.281-1.716-7.02 0-3.64 0.918-6.968 2.756-9.984 2.149-3.536 4.922-5.304 8.32-5.304 0.624 0 1.265 0.07 1.924 0.208 2.496 0.52 4.385 1.89 5.668 4.108 1.144 1.907 1.716 4.23 1.716 6.968zm-5.928 0.26c0-1.04-0.208-2.114-0.624-3.224-0.52-1.352-1.214-2.114-2.08-2.288-1.283-0.277-2.514 0.451-3.692 2.184-0.936 1.352-1.56 2.756-1.872 4.212-0.174 0.832-0.26 1.699-0.26 2.6 0 1.04 0.208 2.115 0.624 3.224 0.52 1.352 1.213 2.115 2.08 2.288 0.866 0.174 1.82-0.208 2.86-1.144 1.317-1.178 2.218-2.929 2.704-5.252 0.173-0.832 0.26-1.698 0.26-2.6z"/>
</g>
<g transform="translate(-185.9 -358.1)">
 <polygon stroke="#e60012" points="277.6 419.7 264.1 424.4 270.3 404.7 281.7 400.2 294.4 404.4 300.7 409.5 295.8 430.5 286.2 421" stroke-miterlimit="10" stroke-width="1.965" fill="#e60012"/>
  <radialGradient id="SVGID_1_" gradientUnits="userSpaceOnUse" cy="395.8" cx="295.6" gradientTransform="matrix(.9987 -.0506 .0506 .9987 -23.48 -16.82)" r="42.14">
  <stop stop-color="#fffef5" offset="0"/>
  <stop stop-color="#e9e8f4" offset="1"/>
 </radialGradient>
 <path fill="url(#SVGID_1_)" d="m275.4 422.7s5.291 3.148 10.34 1.756c0 0 21.02-40.67 21.36-45.24 0.336-4.574 0.4-14.55-7.67-16.42-8.07-1.865-16.28 4.814-17.78 8.879l-6.25 51.02z"/>
 <path d="m295.8 385.5c0.113 2.221-1.598 4.109-3.816 4.221-2.217 0.115-4.107-1.594-4.217-3.812-0.115-2.221 1.594-4.111 3.811-4.223 2.221-0.112 4.111 1.597 4.222 3.814z" stroke="#898989" stroke-miterlimit="10" stroke-width=".9825"/>
 <path d="m292.9 395.6c0.115 2.223-1.594 4.115-3.812 4.227-2.221 0.111-4.111-1.596-4.221-3.818-0.111-2.221 1.594-4.109 3.814-4.221 2.219-0.111 4.112 1.594 4.219 3.812z" stroke="#898989" stroke-miterlimit="10" stroke-width=".9825"/>
 <path d="m290 405.7c0.113 2.221-1.594 4.111-3.816 4.219-2.217 0.117-4.109-1.592-4.217-3.812-0.113-2.221 1.592-4.109 3.809-4.221 2.224-0.113 4.113 1.594 4.224 3.814z" stroke="#898989" stroke-miterlimit="10" stroke-width=".9825"/>
</g>
<rect width="100%" height="100%" fill="none" pointer-events="all"/>
</svg>
