<svg xmlns="http://www.w3.org/2000/svg"
     width="100%" height="100%" viewBox="0 0 138.06 77.98">
 <rect x="2" y="2" width="136" height="76" rx="12"/>
 <rect width="136" height="76" rx="12" fill="#554316"/>
 <path fill="#fff"
       d="m112 26.82c1.43-0.89 6.63 4.64 9.37 7.17 5.94 5.48 5.96 5.51 0.39 11.27-2.3 2.38-4.72 4.64-7.13 6.91-1.36 1.28-2.32 1.04-2.93-0.65-0.17-0.47-0.38-0.96-0.36-1.44 0.1-7.56-0.9-22.37 0.6-23.26z"/>
 <g fill="#fff">
  <path d="m41.95 19.26c-0.16-3.63 0.2-7.07 1.18-10.41 0.17-0.56 0.85-1.4 1.24-1.38 0.84 0.05 1.38 0.77 1.36 1.75-0.09 3.91-0.13 7.82-0.25 11.73-0.08 2.62-0.63 5.21 1.08 7.67 0.87 1.25-0.19 2.27-1.49 2.41-0.83 0.08-1.41-0.9-2.25-0.87-1.31 0.06-2.88 1.11-4.19 1.09-2.62-0.05-4.48-2.28-4.31-4.97 0.23-3.42 2.11-5.62 5.64-6.55 0.61-0.17 1.24-0.3 1.99-0.47zm0.2 5.41c-0.08-0.72 0.31-2.29-1.56-2.58-1.42-0.22-2.87 1.59-2.8 3.42 0.05 1.4 0.91 2.03 2.23 2.15 1.85 0.18 2.28-0.9 2.13-2.99z"/>
  <path d="m27.2 21.98c-1.65 0.13-3.58 2.71-3.58 5.33 0 1.14-0.4 2.27-0.56 3.41-0.11 0.79-0.58 1.1-1.31 1.17-0.9 0.08-1.74-0.1-1.82-1.14-0.29-3.79-0.51-7.62 0.61-11.31 0.34-1.12 1.59-2.18 2.42-0.38 0.81 1.75 1.58 1.42 3.02 0.88 4.21-1.58 5.8-0.43 5.9 3.98 0.04 1.49-0.11 3 0.1 4.46 0.25 1.79-0.24 3.15-2.08 3.11-2.02-0.04-1.95-1.8-1.83-3.31 0.08-0.99 0.18-1.97 0.34-2.95 0.18-1.19 0.44-3.38-1.21-3.25z"/>
  <path d="m5.88 23.99c-0.27-2.84 1.66-4.69 3.75-6.41 1.5-1.24 3.16-1.03 4.61-0.01 1.69 1.18 2.91 2.78 2.71 5.01-0.19 2.09-1.93 2.53-3.53 2.95-0.94 0.24-1.97 0.15-2.95 0.25-0.66 0.07-1.33 0.18-1.37 1.08-0.04 0.79 0.54 1.17 1.07 1.53 1.34 0.9 2.52 0.04 3.74-0.41 0.98-0.36 2.21-0.52 2.68 0.49 0.64 1.36-0.6 2.09-1.63 2.63-4.4 2.31-9.21-1.33-9.08-7.11zm3.19-1.62c0.98 1.02 2.14 0.61 3.22 0.64 0.81 0.02 1.69 0.02 1.73-1.11 0.05-1.38-0.78-2.1-2.06-2.14-1.75-0.06-2.42 1.2-2.89 2.61z"/>
  <path d="m15.48 52.76c1.01-0.52 6.16 0.9 9.65 0.45 1.55-0.2 2.29 0.27 2.83 1.69 1 2.63 2.37 4.97 3.42 7.58 0.59 1.48-0.49 2.66-1.96 2.59-3.23-0.16-6.25-0.23-9.36-0.4-1.18-0.06-2.36-0.53-2.65-1.63-0.95-3.61-2.93-9.77-1.93-10.28z"/>
  <path d="m61.44 31.36c1.03-0.91 4.48-4.33 5.78-5.25 1.29-0.92 1.97-0.96 3.37 0.01s2.73 4.18 4.3 5.97c1.22 1.39-0.15 3.19-0.87 4.01s-4.79 5.39-6.52 5.3c-1.72-0.09-6.61-5.62-6.92-6.67s-0.17-2.45 0.86-3.37z"/>
  <path d="m90.68 9.91c2.01-0.57 3.2-0.56 4.33 1.07 1.25 1.79 2.23 3.71 3.3 5.61 1.08 1.93 0.74 3.02-1.36 4.15-2.32 1.26-4.65 3.66-7.05 3.65-2.61-0.01-3.13-3.22-4.53-5.19-1.25-1.75-3.13-4.51-2.36-5.17 0.78-0.63 5.3-3.44 7.67-4.12z"/>
  <path d="m77.92 31.53c-1.44-0.54-4.75-6.66-5.44-7.73-0.69-1.08-0.07-2.36 0.48-2.84s3.95-3.39 5.24-3.84c1.28-0.45 1.71-0.36 2.7 0.69 0.67 0.72 1.15 1.61 2.47 3.77 0.98 1.6 2.57 2.73 2.55 4.33-0.03 1.81-1.95 2.37-3.27 3.75-0.99 1.05-3.29 2.41-4.73 1.87z"/>
  <path d="m51.06 41.82c-0.44-0.93 3.08-3.12 4.24-4.27 0.97-0.96 2.46-1.89 3.18-1.33 3.37 2.62 3.27 3.23 6.44 6.02 1.31 1.15 0.52 2.43-0.72 3.72-1.69 1.75-4.09 5.1-5.42 4.83-1.49-0.29-6.45-6.28-7.72-8.97z"/>
  <path d="m35.68 64.31c-1.58-0.52-3.58-6.18-5-9.39-1.04-2.34 0.14-2.1 1.03-2.36 0.74-0.21 2.31-0.61 3.62-1.14 3.01-1.22 3.42-1.83 4.74 0.11 0.9 1.31 2.77 5.82 4.56 7.9 0.97 1.12 0.43 1.67-0.29 2.34-0.43 0.42-7.07 3.06-8.66 2.54z"/>
  <path d="m42.34 48.34c0.83-0.57 5.15-4.43 6.16-4.43 1.75 0 7.41 7.23 7.41 9.4 0.01 1.87-6.19 5.46-6.82 5.72-0.63 0.27-0.88 0.34-2.19-0.89-1.95-1.59-3.03-5-3.65-5.86-0.53-0.75-1.74-3.37-0.91-3.94z"/>
  <path d="m16.04 50.77c-1.47-0.08-1.83-0.32-1.89-0.97-0.07-0.81-0.08-1.35 0.03-1.69s0.33-0.5 0.7-0.54c0.61-0.07 1.54-0.13 2.4-0.06 0.87 0.07 1.67 0.28 2.04 0.74 0.21 0.27 0.29 0.69 0.24 1.14s-0.21 0.92-0.49 1.29c-0.2 0.27-0.79 0.3-1.41 0.25-0.62-0.03-1.28-0.14-1.62-0.16z"/>
  <path d="m26.57 50.84c-0.18 0.27-0.77 0.33-1.41 0.31-0.63-0.01-1.3-0.1-1.63-0.12-1.38-0.05-1.72-0.29-1.8-0.93-0.09-0.78-0.11-1.32-0.01-1.66 0.09-0.32 0.3-0.48 0.65-0.53 0.58-0.09 1.45-0.17 2.28-0.13 0.43 0.02 0.85 0.06 1.19 0.16 0.37 0.1 0.68 0.29 0.87 0.55 0.2 0.26 0.29 0.66 0.27 1.09-0.02 0.44-0.16 0.9-0.41 1.26z"/>
  <path d="m34.35 49.13c-0.1 0.31-0.66 0.52-1.28 0.67s-1.3 0.23-1.62 0.29c-1.25 0.24-1.64 0.07-1.86-0.52-0.27-0.72-0.4-1.24-0.38-1.58 0.02-0.32 0.17-0.5 0.48-0.63 0.51-0.22 1.29-0.48 2.05-0.65 0.43-0.1 0.85-0.17 1.21-0.16 0.38 0.01 0.72 0.15 0.98 0.37 0.24 0.21 0.42 0.56 0.5 0.96 0.07 0.4 0.05 0.86-0.08 1.25z"/>
  <path d="m41.24 45.52c-0.02 0.32-0.5 0.67-1.07 0.97s-1.21 0.55-1.51 0.68c-1.08 0.48-1.48 0.38-1.83-0.13-0.42-0.61-0.67-1.09-0.72-1.41-0.05-0.29 0.04-0.49 0.29-0.69 0.41-0.32 1.07-0.74 1.72-1.08 0.4-0.21 0.8-0.39 1.15-0.47 0.37-0.09 0.73-0.01 1.05 0.16 0.27 0.15 0.52 0.43 0.68 0.78 0.18 0.38 0.26 0.8 0.24 1.19z"/>
  <path d="m47.35 41.16c0.01 0.32-0.45 0.71-0.99 1.06-0.55 0.35-1.17 0.65-1.46 0.79-0.96 0.49-1.37 0.4-1.74-0.08-0.44-0.56-0.72-1.02-0.79-1.34-0.06-0.26 0.02-0.46 0.23-0.66 0.36-0.33 0.94-0.77 1.53-1.14 0.39-0.24 0.79-0.48 1.12-0.58 0.35-0.11 0.73-0.03 1.07 0.13 0.27 0.13 0.52 0.38 0.7 0.7 0.2 0.36 0.31 0.76 0.33 1.12z"/>
  <path d="m53.93 35.69c0.05 0.31-0.36 0.76-0.86 1.18-0.51 0.42-1.1 0.78-1.37 0.95-0.83 0.51-1.24 0.45-1.66 0.02-0.48-0.5-0.8-0.93-0.89-1.23-0.07-0.23-0.02-0.43 0.16-0.64 0.3-0.35 0.8-0.81 1.3-1.22 0.36-0.29 0.74-0.58 1.06-0.72 0.34-0.15 0.73-0.08 1.09 0.06 0.27 0.11 0.53 0.32 0.73 0.6 0.23 0.3 0.39 0.66 0.44 1z"/>
  <path d="m59.03 30.94c0.08 0.3-0.31 0.78-0.79 1.23-0.49 0.45-1.07 0.86-1.33 1.03-0.73 0.48-1.15 0.41-1.57 0.01-0.49-0.46-0.82-0.88-0.92-1.16-0.07-0.21-0.04-0.4 0.12-0.6 0.26-0.34 0.69-0.8 1.13-1.21 0.35-0.32 0.72-0.65 1.03-0.81 0.32-0.17 0.73-0.1 1.11 0.05 0.26 0.1 0.51 0.29 0.73 0.54 0.24 0.28 0.41 0.61 0.49 0.92z"/>
  <path d="m64.12 25.55c0.09 0.29-0.29 0.79-0.77 1.25s-1.06 0.88-1.32 1.05c-0.66 0.42-1.07 0.32-1.5-0.07-0.47-0.44-0.8-0.86-0.89-1.14-0.06-0.19-0.03-0.36 0.11-0.55 0.23-0.33 0.62-0.75 1.03-1.14 0.35-0.34 0.73-0.68 1.03-0.84 0.32-0.17 0.73-0.08 1.12 0.08 0.24 0.1 0.49 0.28 0.69 0.51 0.25 0.26 0.42 0.57 0.5 0.85z"/>
  <path d="m69.41 21c0.08 0.29-0.32 0.78-0.83 1.22-0.51 0.45-1.11 0.84-1.38 0.98-0.6 0.32-1.01 0.17-1.4-0.24-0.43-0.45-0.73-0.89-0.79-1.17-0.04-0.17 0-0.33 0.13-0.5 0.22-0.29 0.6-0.67 0.98-1.01 0.37-0.33 0.77-0.67 1.09-0.81 0.32-0.15 0.74-0.02 1.13 0.19 0.22 0.12 0.45 0.3 0.63 0.52 0.21 0.27 0.36 0.57 0.44 0.82z"/>
  <path d="m74.8 16.39c0.06 0.3-0.39 0.74-0.95 1.14s-1.21 0.73-1.49 0.83c-0.55 0.19-0.94-0.03-1.27-0.47-0.36-0.47-0.6-0.95-0.62-1.23-0.01-0.15 0.04-0.3 0.17-0.44 0.22-0.25 0.6-0.56 0.98-0.84 0.41-0.3 0.86-0.6 1.18-0.71 0.33-0.11 0.74 0.08 1.11 0.36 0.2 0.14 0.38 0.34 0.53 0.56 0.18 0.27 0.31 0.56 0.36 0.8z"/>
  <path d="m80.57 12.87c0.04 0.3-0.46 0.7-1.06 1.05-0.6 0.34-1.29 0.61-1.58 0.67-0.47 0.09-0.83-0.21-1.11-0.67-0.29-0.49-0.48-1-0.46-1.26 0.01-0.13 0.07-0.25 0.2-0.38 0.22-0.22 0.58-0.46 0.95-0.69 0.45-0.27 0.94-0.52 1.26-0.6 0.33-0.08 0.72 0.18 1.07 0.52 0.17 0.16 0.32 0.37 0.44 0.58 0.16 0.27 0.26 0.56 0.29 0.78z"/>
  <path d="m86.05 9.31c0.04 0.3-0.48 0.7-1.09 1.03s-1.31 0.59-1.61 0.62c-0.38 0.05-0.72-0.31-0.98-0.77-0.26-0.48-0.43-0.99-0.39-1.25 0.02-0.11 0.08-0.22 0.19-0.33 0.2-0.2 0.51-0.42 0.85-0.62 0.46-0.27 0.97-0.51 1.3-0.58s0.72 0.23 1.05 0.61c0.15 0.17 0.28 0.36 0.39 0.56 0.16 0.27 0.26 0.53 0.29 0.73z"/>
  <path d="m89.75 8.16c-0.29-0.02-0.57-0.45-0.76-0.94s-0.28-1.02-0.2-1.26 0.52-0.52 1.01-0.74 1.05-0.4 1.38-0.43c0.33-0.03 0.69 0.34 0.96 0.79 0.28 0.45 0.47 0.98 0.5 1.28 0.02 0.3-0.56 0.64-1.21 0.9-0.66 0.24-1.39 0.42-1.68 0.4z"/>
  <path d="m99.69 21.7c0.29 0.02 0.57 0.45 0.76 0.94 0.19 0.48 0.28 1.02 0.2 1.26s-0.52 0.52-1.01 0.74c-0.49 0.23-1.05 0.4-1.39 0.43-0.33 0.03-0.68-0.34-0.96-0.79-0.27-0.45-0.47-0.98-0.5-1.28-0.02-0.3 0.56-0.64 1.21-0.89 0.72-0.26 1.45-0.44 1.74-0.41z"/>
  <path d="m91.78 26.95c-0.09-0.29 0.36-0.76 0.91-1.19s1.21-0.79 1.49-0.87c0.37-0.11 0.77 0.19 1.09 0.6 0.34 0.43 0.58 0.92 0.58 1.17 0 0.11-0.05 0.23-0.14 0.36-0.16 0.23-0.44 0.49-0.74 0.75-0.41 0.34-0.88 0.66-1.19 0.78s-0.75-0.11-1.13-0.43c-0.17-0.14-0.34-0.31-0.47-0.49-0.2-0.25-0.34-0.49-0.4-0.68z"/>
  <path d="m85.39 30.49c-0.07-0.29 0.39-0.75 0.95-1.15s1.21-0.74 1.5-0.83c0.46-0.14 0.85 0.12 1.18 0.55 0.34 0.46 0.58 0.94 0.59 1.21 0 0.13-0.05 0.26-0.16 0.4-0.2 0.23-0.52 0.52-0.87 0.78-0.41 0.32-0.88 0.62-1.2 0.73s-0.74-0.11-1.12-0.41c-0.18-0.15-0.35-0.33-0.49-0.53-0.2-0.26-0.33-0.53-0.38-0.75z"/>
  <path d="m79.29 35.18c-0.08-0.29 0.35-0.76 0.88-1.19s1.16-0.79 1.44-0.91c0.54-0.22 0.94-0.02 1.3 0.4 0.38 0.45 0.65 0.92 0.69 1.19 0.02 0.15-0.03 0.3-0.15 0.45-0.21 0.26-0.56 0.59-0.93 0.89-0.39 0.33-0.83 0.65-1.14 0.78-0.32 0.13-0.74-0.04-1.13-0.3-0.21-0.13-0.4-0.32-0.56-0.53-0.2-0.26-0.34-0.54-0.4-0.78z"/>
  <path d="m74.08 39.64c-0.08-0.29 0.33-0.77 0.85-1.21s1.13-0.82 1.4-0.95c0.61-0.3 1.02-0.14 1.4 0.27 0.42 0.45 0.71 0.91 0.77 1.19 0.04 0.17-0.01 0.33-0.14 0.5-0.23 0.29-0.61 0.65-1 0.99-0.38 0.32-0.79 0.65-1.1 0.79-0.32 0.14-0.74 0-1.13-0.21-0.22-0.12-0.44-0.31-0.62-0.53-0.22-0.28-0.37-0.58-0.43-0.84z"/>
  <path d="m68.96 44.42c-0.07-0.3 0.33-0.77 0.83-1.21s1.1-0.83 1.37-0.98c0.68-0.38 1.09-0.27 1.49 0.14 0.45 0.46 0.76 0.9 0.83 1.18 0.05 0.19 0.01 0.36-0.14 0.55-0.24 0.31-0.66 0.72-1.08 1.09-0.37 0.32-0.76 0.64-1.07 0.79-0.32 0.15-0.73 0.04-1.12-0.14-0.24-0.12-0.47-0.3-0.67-0.54-0.21-0.28-0.37-0.6-0.44-0.88z"/>
  <path d="m63.05 50.93c-0.09-0.28 0.25-0.75 0.7-1.2 0.44-0.45 0.97-0.86 1.21-1.04 0.68-0.49 1.07-0.44 1.5-0.08 0.48 0.41 0.82 0.8 0.92 1.07 0.08 0.2 0.05 0.37-0.09 0.57-0.23 0.34-0.62 0.79-1.02 1.2-0.32 0.32-0.66 0.65-0.94 0.81-0.3 0.17-0.68 0.13-1.05 0-0.25-0.08-0.5-0.25-0.71-0.48-0.26-0.26-0.43-0.57-0.52-0.85z"/>
  <path d="m57.54 55.82c-0.05-0.29 0.35-0.72 0.83-1.11s1.05-0.74 1.31-0.89c0.8-0.48 1.19-0.41 1.58 0 0.45 0.48 0.75 0.89 0.84 1.18 0.07 0.22 0.02 0.41-0.16 0.6-0.29 0.33-0.76 0.76-1.24 1.15-0.35 0.28-0.71 0.55-1.02 0.68-0.32 0.14-0.69 0.07-1.03-0.07-0.25-0.11-0.5-0.31-0.69-0.57-0.22-0.31-0.36-0.66-0.42-0.97z"/>
  <path d="m50.81 60.21c-0.01-0.32 0.44-0.71 0.99-1.07 0.55-0.35 1.17-0.66 1.46-0.8 0.96-0.49 1.37-0.41 1.74 0.07 0.45 0.56 0.73 1.02 0.8 1.33 0.06 0.26-0.02 0.46-0.23 0.66-0.36 0.33-0.94 0.77-1.52 1.14-0.39 0.25-0.79 0.48-1.12 0.59-0.35 0.11-0.73 0.04-1.07-0.13-0.27-0.13-0.52-0.38-0.7-0.7-0.22-0.33-0.34-0.72-0.35-1.09z"/>
  <path d="m43.56 64.69c-0.01-0.32 0.46-0.71 1-1.05s1.17-0.64 1.45-0.79c1.04-0.55 1.45-0.49 1.83-0.01 0.46 0.58 0.75 1.04 0.83 1.36 0.07 0.29-0.01 0.5-0.25 0.71-0.39 0.35-1.01 0.82-1.64 1.2-0.38 0.23-0.77 0.45-1.11 0.56-0.36 0.11-0.73 0.06-1.05-0.09-0.28-0.13-0.55-0.39-0.74-0.73-0.19-0.36-0.31-0.77-0.32-1.16z"/>
  <path d="m35.76 66.55c0.12-0.3 0.68-0.49 1.31-0.61s1.31-0.17 1.63-0.21c1.26-0.18 1.64 0 1.83 0.6 0.24 0.73 0.35 1.25 0.31 1.59-0.03 0.31-0.19 0.49-0.51 0.61-0.52 0.19-1.31 0.42-2.08 0.56-0.43 0.08-0.86 0.13-1.22 0.11-0.38-0.03-0.71-0.18-0.96-0.41-0.23-0.22-0.39-0.58-0.45-0.98-0.06-0.42-0.01-0.87 0.14-1.26z"/>
  <path d="m27.63 66.9c0.18-0.28 0.77-0.34 1.4-0.33s1.3 0.09 1.63 0.1c1.38 0.03 1.73 0.28 1.81 0.91 0.1 0.79 0.12 1.32 0.03 1.66-0.09 0.33-0.29 0.48-0.65 0.54-0.58 0.09-1.45 0.18-2.27 0.16-0.43-0.01-0.85-0.05-1.2-0.14-0.37-0.1-0.68-0.29-0.88-0.54-0.21-0.26-0.3-0.66-0.28-1.09 0.03-0.45 0.17-0.91 0.41-1.27z"/>
  <path d="m22.57 66.75c1.46 0.2 1.8 0.47 1.8 1.12 0.01 0.82-0.03 1.35-0.17 1.69-0.13 0.34-0.36 0.47-0.74 0.48-0.61 0.02-1.54 0-2.4-0.14s-1.64-0.41-1.97-0.91c-0.19-0.29-0.23-0.71-0.15-1.16s0.29-0.9 0.6-1.25c0.22-0.25 0.81-0.23 1.43-0.14 0.62 0.1 1.27 0.27 1.6 0.31z"/>
 </g>
</svg>
