<!-- This Source Code Form is subject to the terms of the Mozilla Public
   - License, v. 2.0. If a copy of the MPL was not distributed with this file,
   - You can obtain one at http://mozilla.org/MPL/2.0/.  -->
<svg xmlns="http://www.w3.org/2000/svg" viewBox="0 0 254 102"
  xmlns:xlink="http://www.w3.org/1999/xlink">
<defs>
  <style type="text/css">
   .hitRegion {
    /* 
     * We'd like to use fill:none here but that doesn't seem to work in Fennec
     * due to bug 765679
     */
    opacity: 0;
    pointer-events: all;
   }
   .selectionRing {
    fill: none;
    stroke: #42210B;
    stroke-width: 3;
    stroke-linecap: round
   }
  </style>
  <!-- Eraser -->
  <symbol id="eraser" viewBox="0 0 60 64">
   <path d="m59.59,22.1c.99,5.6-2.91,9.09-5.8,12.76-5.46,6.93-10.99,13.82-15.93,21.11-.86,1.26-2.56,3.67-3.99,4.17-8.96,3.12-16.35,5.11-25.67.58-6.71-3.26-10.19-11.93-7.01-19.67 2.54-6.2 5.37-12.07 10.08-17.33 6.07-6.79 10.9-13.34 16.31-20.73 1.95-2.66 3.12-3.61 5.67-2.58 8.71,3.53 17.48,6.99 23.61,14.38 2.75,3.31 2.29,4.66 2.73,7.31z" fill="#5b4624" fill-rule="evenodd"/>
   <path d="m32.18,1.66c6.14,2.38 11.83,5.19 16.86,9.04 7.69,5.89 7.51,2.92 1.09,11.18-5.58,7.19-10.73,14.69-16.03,22.07-1.68,2.34-3.41,2.48-5.77.95-6.14-3.99-12.34-7.89-18.58-11.72-2.13-1.31-1.43-2.93-.42-4.11 6.11-7.19 10.41-15.87 17.74-22.04 1.89-1.59 2.2-4.78 5.11-5.37z" fill="#2795b0" fill-rule="evenodd"/>
   <path d="m56.47,16.75c4.54,10.48-1.55,14.22-5.67,19.85-5.13,7.01-11.85,15.6-17.18,22.53-.87-11.72-.52-11.13 4.98-18.53 6.98-9.38 11.09-16.08 17.87-23.85z" fill="#278" fill-rule="evenodd"/>
   <path d="m31.82,51.38c1.31,10.26-1.95,8.77-7.48,9.81-14.92,2.79-23.25-5.22-22.8-15.82 4.96,12.41 19.73,15.11 30.28,6.01z" fill="#f5f3e5" fill-rule="evenodd"/>
   <path d="m20.19,55.25c-6.99.59-11.96-1.41-15.68-7.73-1.22-2.08-2.21-3.73-1.81-6.06 1.05-6.07 3.33-10.53 9.37-5.41 5.25,4.45 11.02,8.37 17.49,10.86 1.25.48 2.89,1.62 1.53,3.2-2.53,2.95-6.94,5.16-10.9,5.14z" fill="#fff" fill-rule="evenodd"/>
  </symbol>
</defs>
<!-- Background -->
<rect width="254" height="102" rx="20" ry="20" fill="#F9EBB8"/>
<!-- Selection rings -->
<g transform="translate(52 51)">
  <circle r="34.41" class="selectionRing" stroke-dasharray="10.8"
    id="big-ring">
    <animateTransform attributeName="transform" type="scale"
      values="0; 0" fill="freeze"/>
    <animateTransform attributeName="transform" type="scale"
      values="0.7; 1.15; 0.9; 1" keyTimes="0; 0.5; 0.9; 1" dur="0.4s"
      calcMode="spline" keySplines="0 0 0.58 1; 0.42 0 0.58 1; 0 0 1 1"
      begin="indefinite" end="indefinite" fill="freeze" restart="whenNotActive"
      id="grow-big"/>
    <animateTransform attributeName="transform" type="scale"
      from="1" to="0" dur="0.2s"
      calcMode="spline" keySplines="0.42 0 1 1"
      begin="indefinite" end="indefinite" fill="freeze" restart="whenNotActive"
      id="shrink-big"/>
  </circle>
</g>
<g transform="translate(135 51)">
  <circle r="28.33" class="selectionRing" stroke-dasharray="8.4,9.4"
    id="middle-ring">
    <animateTransform attributeName="transform" type="scale"
      values="0; 0" fill="freeze"/>
    <animateTransform attributeName="transform" type="scale"
      values="0.65; 1.15; 0.9; 1" keyTimes="0; 0.5; 0.85; 1" dur="0.4s"
      calcMode="spline" keySplines="0 0 0.58 1; 0.42 0 0.58 1; 0 0 1 1"
      begin="indefinite" end="indefinite" fill="freeze" restart="whenNotActive"
      id="grow-middle"/>
    <animateTransform attributeName="transform" type="scale"
      from="1" to="0" dur="0.2s"
      calcMode="spline" keySplines="0.42 0 1 1"
      begin="indefinite" end="indefinite" fill="freeze" restart="whenNotActive"
      id="shrink-middle"/>
  </circle>
</g>
<g transform="translate(208 51)">
  <circle r="21.64" class="selectionRing" stroke-dasharray="5.8,7.8"
    id="small-ring">
    <animateTransform attributeName="transform" type="scale"
      values="0; 0" fill="freeze"/>
    <animateTransform attributeName="transform" type="scale"
      values="0.58; 1.15; 0.9; 1" keyTimes="0; 0.5; 0.85; 1" dur="0.4s"
      calcMode="spline" keySplines="0 0 0.58 1; 0.42 0 0.58 1; 0 0 1 1"
      begin="indefinite" end="indefinite" fill="freeze" restart="whenNotActive"
      id="grow-small"/>
    <animateTransform attributeName="transform" type="scale"
      from="1" to="0" dur="0.2s"
      calcMode="spline" keySplines="0.42 0 1 1"
      begin="indefinite" end="indefinite" fill="freeze" restart="whenNotActive"
      id="shrink-small"/>
  </circle>
</g>
<!-- Color dots -->
<g color="#EA001C" id="dots">
	<circle cy="51" cx="52" r="25.63" fill="currentColor"/>
	<circle cy="51" cx="135" r="19.89" fill="currentColor"/>
	<circle cy="51" cx="208" r="13.72" fill="currentColor"/>
  <animate attributeName="opacity" from="0" to="1" restart="whenNotActive"
    begin="indefinite" end="indefinite" dur="0.3s" fill="freeze"
    id="fadein-dots"/>
  <animate attributeName="opacity" from="1" to="0" restart="whenNotActive"
    begin="indefinite" end="indefinite" dur="0.3s" fill="freeze"
    id="fadeout-dots"/>
</g>
<!-- Erasers -->
<g id="erasers" opacity="0">
  <use xlink:href="#eraser" x="21" y="18" width="60" height="64"/>
  <use xlink:href="#eraser" x="112.5" y="26" width="45" height="48"/>
  <use xlink:href="#eraser" x="194" y="35" width="28" height="29.9"/>
  <animate attributeName="opacity" from="0" to="1" restart="whenNotActive"
    begin="indefinite" end="indefinite" dur="0.3s" fill="freeze"
    id="fadein-erasers"/>
  <animate attributeName="opacity" from="1" to="0" restart="whenNotActive"
    begin="indefinite" end="indefinite" dur="0.3s" fill="freeze"
    id="fadeout-erasers"/>
</g>
<!-- Hit testing regions -->
<g>
  <rect width="93.5" height="102" id="big" class="hitRegion"/>
  <rect x="93.5" width="78" height="102" id="middle" class="hitRegion"/>
  <rect x="171.5" width="82.5" height="102" id="small" class="hitRegion"/>
</g>
<script type="text/javascript">
<![CDATA[
var currentWidth = null;
var mode = 'dots';

document.setColor = function(color) {
  if (mode !== 'dots') {
   document.getElementById("fadeout-erasers").beginElement();
   document.getElementById("fadein-dots").beginElement();
   mode = 'dots';
  }
  document.getElementById('dots').style.color = color;
}

document.setEraserMode = function() {
  if (mode !== 'eraser') {
   document.getElementById("fadein-erasers").beginElement();
   document.getElementById("fadeout-dots").beginElement();
   mode = 'eraser';
  }
}

document.getWidth = function() {
  return currentWidth;
}

document.setWidth = function(width) {
  currentWidth = width;
  updateWidth(width);
}

function updateWidth(width) {
  for (var i = 0; i < 3; ++i) {
    var keyword = (i == 2) ? "big" : (i == 1) ? "middle" : "small";
    var ring   = document.getElementById(keyword + "-ring");
    var grow   = document.getElementById("grow-" + keyword);
    var shrink = document.getElementById("shrink-" + keyword);
    if (i == width && !ring.selected) {
      grow.beginElement();
      ring.selected = true;
    } else if (i != width && ring.selected) {
      shrink.beginElement();
      ring.selected = false;
    }
  }
}

function handleWidthChange(evt) {
  var width;
  switch (evt.target.id) {
    case 'big':
      width = 2;
      break;
    case 'middle':
      width = 1;
      break;
    case 'small':
      width = 0;
      break;
    default:
      return;
  }
  var changeEvent = document.createEvent("CustomEvent");
  changeEvent.initCustomEvent("widthchange", true, true, { width: width });
  document.dispatchEvent(changeEvent);
  document.setWidth(width);
}

function init() {
  var hitRegions = document.querySelectorAll(".hitRegion");
  for (var i = 0; i < hitRegions.length; i++) {
    hitRegions[i].addEventListener("click", handleWidthChange, false);
  }
}
init();
]]>
</script>
</svg>
