<?xml version="1.0" encoding="UTF-8" standalone="no"?>
<svg xmlns="http://www.w3.org/2000/svg" version="1.1"
 viewBox="0 0 100 74" width="100%" height="100%">
<g stroke-width="7.069" stroke-miterlimit="10" transform="translate(-242.1 -389.2)">
 <path d="m246.7 430.2c1.178 11.32 11.14 21.53 23.21 29.68h45.44l-46.97-28.36c0.001 0-21.7-1.514-21.69-1.321z" stroke="#d9b000" fill="#d9b000"/>
 <polygon stroke="#c03737" points="261.5 408.1 268.8 431 316.3 459.9 326.6 459.9 281.8 413.2" fill="#c03737"/>
 <path d="m301.7 399.2c-3.461-3.277-23.51-5.652-23.51-5.652l4.043 19.02 45.2 47.32h11.66v-10.32c-1.592-3.139-3.34-6.557-5.27-10.3-9.743-18.94-28.66-36.78-32.13-40.06z" stroke="#008a5c" fill="#008a5c"/>
</g>
<g stroke-linejoin="round" transform="translate(-242.1 -389.2)" stroke="#1d2b68" stroke-miterlimit="10" stroke-width="8" fill="#1d2b68">
 <path d="m278.4 429.6c0 1.49-0.399 2.981-1.196 4.472-0.867 1.63-2.271 3.094-4.212 4.395-1.942 1.3-3.9 2.071-5.876 2.313-1.006 0.139-1.751 0.07-2.236-0.208 0.624 2.358 1.716 3.536 3.276 3.536 1.386 0 3.033-0.849 4.94-2.548 0.589-0.521 1.248-0.78 1.976-0.78 0.658 0 1.274 0.295 1.846 0.884 0.572 0.59 0.858 1.283 0.858 2.08 0 0.832-0.347 1.561-1.04 2.185-2.808 2.496-5.547 3.743-8.216 3.743-2.912 0-5.304-1.352-7.176-4.056-1.664-2.426-2.496-5.165-2.496-8.216 0-2.738 0.693-5.234 2.08-7.488 1.109-1.837 2.721-3.414 4.836-4.731 2.114-1.317 4.212-1.977 6.292-1.977 1.906 0 3.44 0.59 4.602 1.769 1.161 1.178 1.742 2.721 1.742 4.627zm-5.148 0.468c0-0.728-0.555-1.092-1.664-1.092-0.59 0-1.092 0.087-1.508 0.26-3.086 1.352-4.854 3.38-5.304 6.084 0.277 0.208 0.745 0.399 1.404 0.572 1.664-0.139 3.102-0.589 4.316-1.353 0.797-0.484 1.473-1.213 2.028-2.184 0.485-0.865 0.728-1.628 0.728-2.287z"/>
 <path d="m300.8 447c0 0.866-0.285 1.586-0.857 2.157-0.572 0.572-1.292 0.858-2.158 0.858-0.867 0-1.578-0.286-2.132-0.858-0.555-0.571-0.832-1.291-0.832-2.157v-12.6c0-1.248-0.642-1.872-1.924-1.872-1.63-0.034-2.93 0.832-3.9 2.601-0.798 1.491-1.196 3.12-1.196 4.888l0.052 6.708c0 0.902-0.278 1.621-0.832 2.158-0.555 0.538-1.283 0.806-2.184 0.806-0.902 0-1.63-0.268-2.184-0.806-0.555-0.537-0.832-1.256-0.832-2.158v-17.3c0-0.866 0.277-1.577 0.832-2.133 0.554-0.554 1.265-0.832 2.132-0.832 0.901 0 1.629 0.27 2.184 0.807 0.554 0.538 0.832 1.257 0.832 2.158v0.676c2.149-2.357 4.506-3.536 7.072-3.536 2.045 0 3.588 0.832 4.628 2.496 0.865 1.422 1.299 3.207 1.299 5.355v12.64z"/>
 <path d="m326.6 447.2c0 0.763-0.277 1.378-0.832 1.846s-1.214 0.702-1.976 0.702c-1.075 0-2.358-0.884-3.849-2.652-2.08 1.526-4.42 2.288-7.02 2.288-3.017 0-5.322-1.074-6.916-3.224-1.456-1.906-2.219-4.438-2.288-7.593-0.104-3.777 0.979-6.854 3.25-9.229 2.271-2.374 5.278-3.562 9.021-3.562 0.901 0 1.769 0.087 2.601 0.261v-8.893c0-0.866 0.286-1.586 0.857-2.158 0.572-0.572 1.291-0.858 2.158-0.858 0.866 0 1.577 0.286 2.132 0.858s0.832 1.292 0.832 2.158v26.1c1.354 1.456 2.03 2.773 2.03 3.952zm-8.008-7.332v-7.229c-0.347-0.138-0.676-0.364-0.988-0.676-1.352-0.485-2.843-0.381-4.472 0.312-1.11 0.486-1.977 1.31-2.601 2.471s-0.936 2.384-0.936 3.666c0 1.248 0.26 2.322 0.78 3.224 0.589 1.145 1.456 1.751 2.6 1.82 1.074 0.069 2.166-0.242 3.276-0.937 0.797-0.52 1.265-0.918 1.403-1.195 0.279-0.59 0.591-1.075 0.938-1.456z"/>
</g>
<g fill="#fff" transform="translate(-242.1 -389.2)">
 <path d="m277.4 429.6c0 1.49-0.399 2.981-1.196 4.472-0.867 1.63-2.271 3.094-4.212 4.395-1.942 1.3-3.9 2.071-5.876 2.313-1.006 0.139-1.751 0.07-2.236-0.208 0.624 2.358 1.716 3.536 3.276 3.536 1.386 0 3.033-0.849 4.94-2.548 0.589-0.521 1.248-0.78 1.976-0.78 0.658 0 1.274 0.295 1.846 0.884 0.572 0.59 0.858 1.283 0.858 2.08 0 0.832-0.347 1.561-1.04 2.185-2.808 2.496-5.547 3.743-8.216 3.743-2.912 0-5.304-1.352-7.176-4.056-1.664-2.426-2.496-5.165-2.496-8.216 0-2.738 0.693-5.234 2.08-7.488 1.109-1.837 2.721-3.414 4.836-4.731 2.114-1.317 4.212-1.977 6.292-1.977 1.906 0 3.44 0.59 4.602 1.769 1.161 1.178 1.742 2.721 1.742 4.627zm-5.148 0.468c0-0.728-0.555-1.092-1.664-1.092-0.59 0-1.092 0.087-1.508 0.26-3.086 1.352-4.854 3.38-5.304 6.084 0.277 0.208 0.745 0.399 1.404 0.572 1.664-0.139 3.102-0.589 4.316-1.353 0.797-0.484 1.473-1.213 2.028-2.184 0.486-0.865 0.728-1.628 0.728-2.287z"/>
 <path d="m300.8 447c0 0.866-0.286 1.586-0.857 2.157-0.572 0.572-1.292 0.858-2.159 0.858s-1.578-0.286-2.132-0.858c-0.555-0.571-0.832-1.291-0.832-2.157v-12.6c0-1.248-0.642-1.872-1.924-1.872-1.63-0.034-2.93 0.832-3.9 2.601-0.798 1.491-1.196 3.12-1.196 4.888l0.052 6.708c0 0.902-0.278 1.621-0.832 2.158-0.555 0.538-1.283 0.806-2.184 0.806-0.902 0-1.63-0.268-2.184-0.806-0.555-0.537-0.832-1.256-0.832-2.158v-17.3c0-0.866 0.277-1.577 0.832-2.133 0.554-0.554 1.265-0.832 2.132-0.832 0.901 0 1.629 0.27 2.184 0.807 0.554 0.538 0.832 1.257 0.832 2.158v0.676c2.149-2.357 4.506-3.536 7.072-3.536 2.045 0 3.588 0.832 4.628 2.496 0.866 1.422 1.3 3.207 1.3 5.355v12.64z"/>
 <path d="m327.6 447.2c0 0.763-0.277 1.378-0.832 1.846s-1.214 0.702-1.976 0.702c-1.075 0-2.358-0.884-3.849-2.652-2.08 1.526-4.42 2.288-7.02 2.288-3.017 0-5.322-1.074-6.916-3.224-1.456-1.906-2.219-4.438-2.288-7.593-0.104-3.777 0.979-6.854 3.25-9.229 2.271-2.374 5.278-3.562 9.021-3.562 0.901 0 1.769 0.087 2.601 0.261v-8.893c0-0.866 0.286-1.586 0.857-2.158 0.572-0.572 1.291-0.858 2.158-0.858 0.866 0 1.577 0.286 2.132 0.858s0.832 1.292 0.832 2.158v26.1c1.354 1.456 2.03 2.773 2.03 3.952zm-8.008-7.332v-7.229c-0.347-0.138-0.676-0.364-0.988-0.676-1.352-0.485-2.843-0.381-4.472 0.312-1.11 0.486-1.977 1.31-2.601 2.471s-0.936 2.384-0.936 3.666c0 1.248 0.26 2.322 0.78 3.224 0.589 1.145 1.456 1.751 2.6 1.82 1.074 0.069 2.166-0.242 3.276-0.937 0.797-0.52 1.265-0.918 1.403-1.195 0.279-0.59 0.591-1.075 0.938-1.456z"/>
</g>
<rect width="100%" height="100%" fill="none" pointer-events="all"/>
</svg>
