<?xml version="1.0" encoding="UTF-8" standalone="no"?>
<svg version="1.1" xmlns="http://www.w3.org/2000/svg"
  xmlns:xlink="http://www.w3.org/1999/xlink"
  viewBox="0 0 385 138" width="100%" height="100%">
  <defs>
  <filter id="glow" filterUnits="objectBoundingBox" x="-30%" y="-30%"
   width="160%" height="160%">
   <feMorphology in="SourceAlpha" radius="4" operator="dilate"/>
   <feGaussianBlur stdDeviation="5" result="blur"/>
   <feFlood flood-color="#ffc" flood-opacity=".8" result="mask"/>
   <feComposite in="mask" in2="blur" operator="in" result="glow"/>
  </filter>
  <style>
   .glow {
     transition-property: opacity;
     transition-duration: 0.35s;
     -moz-transition-property: opacity;
     -moz-transition-duration: 0.35s;
     -webkit-transition-property: opacity;
     -webkit-transition-duration: 0.35s;
     -o-transition-property: opacity;
     -o-transition-duration: 0.35s;
     filter: url(#glow);
     opacity: 0;
   }
   .active {
     transition-property: opacity;
     transition-duration: 0.35s;
     -moz-transition-property: opacity;
     -moz-transition-duration: 0.35s;
     -webkit-transition-property: opacity;
     -webkit-transition-duration: 0.35s;
     -o-transition-property: opacity;
     -o-transition-duration: 0.35s;
     opacity: 1;
   }
  </style>
 </defs>
 <g fill="#964496" id="starGroup">
  <use xlink:href="#largeStar" id="largeStarGlow" class="glow"/>
  <path id="largeStar" d="m54.6 92.1-24.8-27.6-36.9 4.3 18.6-32.2-15.5-33.8 36.3 7.8 27.4-25.2 3.8 37 32.4 18.2-33.9 15.1z" transform="translate(25.5,26.7)"/>
  <use xlink:href="#mediumStar" id="mediumStarGlow" class="glow"/>
  <path id="mediumStar" d="m218 114-19.7-19.5-26.5 5.43 12.5-24.8-13.4-23.6 27.4 4.2 18.3-20 4.49 27.4 24.7 11.2-24.7 12.7z"/>
  <use xlink:href="#smallStar" id="smallStarGlow" class="glow"/>
  <path id="smallStar" d="m334.9 70.32-16.98-4.674-13.3 11.55-0.8027-17.59-15.06-9.103 16.46-6.197 4.009-17.16 11.03 13.74 17.51-1.488-9.716 14.71z"/>
 </g>
 <g fill="none" pointer-events="all">
  <rect width="140" height="138" class="hitRegion" id="large"/>
  <rect width="125" x="140" height="138" class="hitRegion" id="medium"/>
  <rect width="120" x="265" height="138" class="hitRegion" id="small"/>
 </g>
</svg>
